<?xml version="1.0" standalone="no"?>
<!DOCTYPE svg PUBLIC "-//W3C//DTD SVG 1.1//EN" "http://www.w3.org/Graphics/SVG/1.1/DTD/svg11.dtd" >
<svg xmlns="http://www.w3.org/2000/svg">
<metadata>Generated by IcoMoon</metadata>
<defs>
<font id="wapicon" horiz-adv-x="512">
<font-face units-per-em="512" ascent="480" descent="-32" />
<missing-glyph horiz-adv-x="512" />
<glyph unicode="&#x20;" horiz-adv-x="256" d="" />
<glyph unicode="&#xe000;" glyph-name="home" d="M256 448l-256-256h64v-192h128v160h128v-160h128v192h64l-256 256z" />
<glyph unicode="&#xe003;" glyph-name="office" d="M0-32h256v512h-256v-512zM160 416h64v-64h-64v64zM160 288h64v-64h-64v64zM160 160h64v-64h-64v64zM32 416h64v-64h-64v64zM32 288h64v-64h-64v64zM32 160h64v-64h-64v64zM288 320h224v-32h-224zM288-32h64v128h96v-128h64v288h-224z" />
<glyph unicode="&#xe004;" glyph-name="store" d="M448 448h-384v-64h384zM512 160v64l-64 128h-384l-64-128v-64h32v-160h288v160h96v-160h64v160zM256 64h-160v96h160z" />
<glyph unicode="&#xe005;" glyph-name="pencil" d="M0 74.682v-106.682h106.681l314.781 314.781-106.682 106.681-314.781-314.781zM503.679 364.998c11.095 11.095 11.095 29.16 0 40.255l-66.427 66.427c-11.095 11.095-29.159 11.095-40.255 0l-52.060-52.060 106.681-106.682 52.060 52.060z" />
<glyph unicode="&#xe006;" glyph-name="draft" d="M384 32.001l0.002 159.999 64 64v-288h-448v448h287.999l-63.999-64h-160l-0.002-320.001zM192 226.676v-66.676h66.675l196.738 196.738-66.676 66.675-196.738-196.738zM506.799 408.123c6.934 6.935 6.934 18.225 0 25.16l-41.517 41.517c-6.935 6.935-18.224 6.935-25.159 0l-32.538-32.538 66.675-66.675 32.538 32.538z" />
<glyph unicode="&#xe00b;" glyph-name="paint-format" d="M409.841 429.521h76.92v-205.521h-205.521v-230.76c0-14.423-10.817-25.24-25.24-25.24h-51.68c-14.423 0-25.239 10.817-25.239 25.24v282.442h256v102.159h-25.24v-25.24c0-14.422-10.817-26.441-25.24-26.441h-307.68c-14.422 0-26.442 12.019-26.442 26.442v102.159c0 14.422 12.019 25.239 26.442 25.239h307.68c14.423 0 25.24-10.817 25.24-25.239v-25.239z" />
<glyph unicode="&#xe00d;" glyph-name="image" d="M0 416v-416h512v416zM479.998 32h-447.995v352h447.995zM352.026 304c0 26.482 21.484 48.004 47.966 48.004 26.519 0 48.003-21.522 48.003-48.004 0-26.519-21.484-48.004-48.004-48.004-26.482 0-47.966 21.484-47.966 48.004zM447.995 64h-383.99l96.007 256 127.988-160 64.025 32z" />
<glyph unicode="&#xe00f;" glyph-name="camera" d="M256 95.399c70.911 0 128.601 57.69 128.601 128.601s-57.69 128.601-128.601 128.601c-70.911 0-128.601-57.69-128.601-128.601s57.69-128.601 128.601-128.601zM179.080 480h153.84l46.873-63.999h81.728c27.643 0 50.479-24.038 50.479-51.681v-280.64c0-27.643-22.836-51.68-50.479-51.68h-411.042c-27.643 0-50.479 24.038-50.479 51.68v280.639c0 27.643 22.835 51.681 50.479 51.681h81.728zM174.273 224c0 45.672 36.056 81.728 81.727 81.728s81.728-36.056 81.728-81.728c0-45.672-36.056-81.728-81.728-81.728s-81.728 36.056-81.728 81.728z" />
<glyph unicode="&#xe010;" glyph-name="music" d="M452 448h28v-322c0-38.66-43.877-70-98-70s-98 31.34-98 70c0 38.661 43.877 70 98 70 27.424 0 52.212-8.050 70-21.018v161.018l-224-49.778v-216.222c0-38.66-43.876-70-98-70s-98 31.34-98 70c0 38.661 43.876 70 98 70 27.424 0 52.212-8.050 70-21.018v273.018l252 56z" />
<glyph unicode="&#xe012;" glyph-name="play-movie" d="M465.454 410.182h-418.909c-25.6 0-46.545-20.712-46.545-46.545v-279.273c0-25.6 20.945-46.546 46.545-46.546h418.909c25.6 0 46.546 20.945 46.546 46.546v279.273c0 25.832-20.945 46.546-46.546 46.546zM465.454 84.363h-418.909v279.273h418.909zM186.182 317.091v-186.182l162.91 93.091z" />
<glyph unicode="&#xe015;" glyph-name="dice" d="M384.601 95.399v103.361h50.479v-153.841h-307.68v-76.92l-102.159 102.159 102.159 102.159v-76.92h257.202zM127.399 352.601v-103.362h-50.479v153.84h307.68v76.92l102.159-102.159-102.159-102.16v76.92h-257.202z" />
<glyph unicode="&#xe01c;" glyph-name="connection" d="M93.685 201.123c90.417 89.327 235.302 89.327 324.63 0l-45.753-46.843c-64.272 64.272-168.851 64.272-233.124 0zM186.281 107.438c38.127 38.127 101.31 38.127 139.439 0l-69.719-69.719zM0 293.719c141.617 140.528 371.473 140.528 512 0l-46.842-46.843c-115.472 115.472-302.842 115.472-418.315 0z" />
<glyph unicode="&#xe01f;" glyph-name="book" d="M448 416v-416h-336c-26.513 0-48 21.49-48 48s21.487 48 48 48h304v384h-320c-35.199 0-64-28.8-64-64v-384c0-35.2 28.801-64 64-64h384v448h-32zM112.028 64v0c-0.009-0.001-0.019 0-0.028 0-8.836 0-16-7.163-16-16s7.164-16 16-16c0.009 0 0.019 0.001 0.028 0.001v-0.001h303.945v32h-303.945z" />
<glyph unicode="&#xe020;" glyph-name="books" d="M112 416h-96c-8.8 0-16-7.2-16-16v-352c0-8.8 7.2-16 16-16h96c8.8 0 16 7.2 16 16v352c0 8.8-7.2 16-16 16zM96 320h-64v32h64v-32zM272 416h-96c-8.8 0-16-7.2-16-16v-352c0-8.8 7.2-16 16-16h96c8.8 0 16 7.2 16 16v352c0 8.8-7.2 16-16 16zM256 320h-64v32h64v-32zM389.147 394.671l-90.348-30.56c-8.281-2.801-12.765-11.87-9.964-20.151l101.868-301.161c2.8-8.282 11.869-12.766 20.151-9.964l90.348 30.56c8.281 2.802 12.765 11.87 9.964 20.151l-101.868 301.161c-2.801 8.282-11.87 12.767-20.151 9.966z" />
<glyph unicode="&#xe021;" glyph-name="library" d="M255.428 480l224.572-96v-64l-448 0v64zM352 288h64v-224h-64zM32.001-32v64l448-0v-64zM224 288h64v-224h-64zM96 288h64v-224h-64z" />
<glyph unicode="&#xe026;" glyph-name="file" d="M256 288h153.542l-153.542 153.538zM115.68 479.999h178.479l153.84-153.84v-307.68c0-27.643-24.038-50.479-51.68-50.479h-280.639c-27.643 0-51.681 22.836-51.681 50.479v411.042c0 27.643 24.038 50.479 51.681 50.479z" />
<glyph unicode="&#xe027;" glyph-name="copy" d="M320 480h-224c-35.2 0-63.999-28.8-63.999-64v-256h63.999v256h224zM416 384h-224c-35.2 0-64.001-28.799-64.001-64v-288c0-35.2 28.801-64 64.001-64h224c35.2 0 64 28.799 64 64v288c0 35.2-28.8 64.001-64 64.001zM416 31.999h-224v288h224v-288z" />
<glyph unicode="&#xe02b;" glyph-name="paste" d="M192 480c-35.36 0-64-28.64-64-64h-96c-4.4 0-8.575-0.874-12.4-2.5s-7.3-4-10.2-6.9c-2.9-2.9-5.275-6.375-6.9-10.2s-2.5-8-2.5-12.4v-320c0-4.4 0.875-8.575 2.5-12.4s4-7.3 6.9-10.2c2.9-2.9 6.375-5.274 10.2-6.9s8-2.5 12.4-2.5h224c0-35.2 28.8-64 64-64h128c35.2 0 64 28.799 64 64v192c0 35.2-28.8 64-64 64h-64v96c0 4.4-0.875 8.575-2.5 12.4s-4 7.3-6.9 10.2c-2.9 2.9-6.375 5.274-10.2 6.9s-8 2.5-12.4 2.5h-96c0 35.36-28.64 64-64 64zM192 448c17.664 0 32-14.336 32-32s-14.336-32-32-32c-17.664 0-32 14.336-32 32s14.336 32 32 32zM32 384h32c0-4.4 0.444-8.743 1.3-12.9s2.075-8.075 3.7-11.9c1.625-3.825 3.694-7.494 6-10.9s4.9-6.6 7.8-9.5c2.9-2.9 6.094-5.494 9.5-7.8s6.975-4.274 10.8-5.9c3.825-1.625 7.844-2.944 12-3.8s8.5-1.3 12.9-1.3h128c4.4 0 8.743 0.444 12.9 1.3s8.075 2.075 11.9 3.7c3.825 1.625 7.494 3.694 10.9 6s6.6 4.9 9.5 7.8c2.9 2.9 5.494 6.094 7.8 9.5s4.375 7.075 6 10.9c1.625 3.825 2.844 7.743 3.7 11.9s1.3 8.5 1.3 12.9h32v-96h-32c-35.2 0-64-28.799-64-64v-160h-224v320zM320 224h128v-192h-128v192z" />
<glyph unicode="&#xe02e;" glyph-name="folder" d="M64 416c-4.42 0-8.733-0.448-12.9-1.3s-8.172-2.082-12-3.7c-3.828-1.618-7.495-3.601-10.9-5.9s-6.605-4.905-9.5-7.8c-2.895-2.895-5.5-6.096-7.8-9.5s-4.281-7.072-5.9-10.9c-1.619-3.828-2.848-7.833-3.7-12s-1.3-8.48-1.3-12.9v-288c0-4.42 0.448-8.733 1.3-12.9s2.081-8.171 3.7-12c1.619-3.829 3.601-7.495 5.9-10.9s4.905-6.605 7.8-9.5c2.895-2.895 6.096-5.5 9.5-7.8s7.072-4.281 10.9-5.9c3.828-1.619 7.833-2.848 12-3.7s8.48-1.3 12.9-1.3h384c4.42 0 8.733 0.448 12.9 1.3s8.171 2.081 12 3.7c3.829 1.619 7.495 3.601 10.9 5.9s6.605 4.905 9.5 7.8c2.895 2.895 5.5 6.096 7.8 9.5s4.281 7.072 5.9 10.9c1.619 3.829 2.848 7.833 3.7 12s1.3 8.48 1.3 12.9v224c0 4.42-0.448 8.733-1.3 12.9s-2.081 8.172-3.7 12c-1.619 3.829-3.601 7.495-5.9 10.9s-4.905 6.605-7.8 9.5c-2.895 2.895-6.096 5.5-9.5 7.8s-7.072 4.281-10.9 5.9c-3.829 1.619-7.833 2.848-12 3.7s-8.48 1.3-12.9 1.3h-160l-64 64h-160z" />
<glyph unicode="&#xe02f;" glyph-name="folder-open" d="M64 448c-4.4 0-8.743-0.443-12.9-1.3s-8.075-2.175-11.9-3.8c-3.825-1.625-7.494-3.594-10.9-5.9s-6.6-4.9-9.5-7.8c-2.9-2.9-5.494-6.094-7.8-9.5s-4.375-7.075-6-10.9c-1.625-3.825-2.844-7.744-3.7-11.9s-1.3-8.5-1.3-12.9v-352l64 288h352c0 4.4-0.443 8.744-1.3 12.9s-2.075 8.075-3.7 11.9c-1.625 3.825-3.694 7.493-6 10.9s-4.9 6.6-7.8 9.5c-2.9 2.9-6.094 5.494-9.5 7.8s-7.075 4.275-10.9 5.9c-3.825 1.625-7.743 2.943-11.9 3.8s-8.5 1.3-12.9 1.3h-144l-64 64h-80zM0 32h397.4c4.4 0 8.743 0.444 12.9 1.3s8.175 2.175 12 3.8c3.825 1.625 7.494 3.594 10.9 5.9s6.5 4.9 9.4 7.8c2.9 2.9 5.594 6.094 7.9 9.5 2.156 3.185 3.938 6.646 5.5 10.2l0.9 2.3 47.2 125.8 0.8 2.2c1.322 3.353 2.459 6.702 3.2 10.3 0.856 4.156 1.3 8.5 1.3 12.9s-0.443 8.744-1.3 12.9c-0.856 4.156-2.075 8.174-3.7 12s-3.594 7.393-5.9 10.8c-2.306 3.406-5 6.6-7.9 9.5s-5.994 5.494-9.4 7.8c-3.406 2.306-7.075 4.375-10.9 6s-7.844 2.844-12 3.7c-4.156 0.856-8.5 1.3-12.9 1.3h-349.4l-96-256z" />
<glyph unicode="&#xe030;" glyph-name="tag" d="M50.5 480c-27.644 0-50.5-22.857-50.5-50.5v-180.3c0-14.422 4.785-26.385 14.4-36l230.8-230.8c9.615-9.615 21.578-14.4 36-14.4s26.485 4.785 36.1 14.4l180.3 180.3c9.615 9.615 14.4 21.677 14.4 36.1s-4.785 26.385-14.4 36l-230.8 230.8c-9.615 9.614-21.578 14.4-36 14.4h-180.3zM112 416c27 0 48-21 48-48s-21-48-48-48c-26.999 0-48 21.001-48 48s20.999 48 48 48z" />
<glyph unicode="&#xe031;" glyph-name="tag-off" d="M50.5 480c-27.644 0-50.5-22.857-50.5-50.5v-180.313c0-14.422 4.791-26.385 14.406-36l64.375-64.375 252.375 252.438-64.344 64.344c-9.615 9.614-21.578 14.406-36 14.406h-180.313zM476.75 478.906l-475.594-475.719 34.094-34.094 111.625 111.625 98.313-98.313c9.615-9.615 21.578-14.406 36-14.406s26.51 4.791 36.125 14.406l180.281 180.281c9.615 9.615 14.406 21.702 14.406 36.125s-4.791 26.385-14.406 36l-98.313 98.313 111.563 111.563-34.094 34.219zM112 416c27 0 48-21 48-48s-21-48-48-48c-26.999 0-48 21.001-48 48s20.999 48 48 48z" />
<glyph unicode="&#xe033;" glyph-name="barcode" d="M0 416h64v-320h-64zM96 416h32v-320h-32zM160 416h32v-320h-32zM256 416h32v-320h-32zM384 416h32v-320h-32zM480 416h32v-320h-32zM320 416h16v-320h-16zM224 416h16v-320h-16zM432 416h16v-320h-16zM0 64h32v-32h-32zM96 64h32v-32h-32zM160 64h32v-32h-32zM320 64h32v-32h-32zM480 64h32v-32h-32zM384 64h64v-32h-64zM224 64h64v-32h-64z" />
<glyph unicode="&#xe034;" glyph-name="qrcode" d="M160 448h-128v-128h128v128zM192 480v0-192h-192v192h192zM64 416h64v-64h-64zM480 448h-128v-128h128v128zM512 480v0-192h-192v192h192zM384 416h64v-64h-64zM160 128h-128v-128h128v128zM192 160v0-192h-192v192h192zM64 96h64v-64h-64zM224 480h32v-32h-32zM256 448h32v-32h-32zM224 416h32v-32h-32zM256 384h32v-32h-32zM224 352h32v-32h-32zM256 320h32v-32h-32zM224 288h32v-32h-32zM224 224h32v-32h-32zM256 192h32v-32h-32zM224 160h32v-32h-32zM256 128h32v-32h-32zM224 96h32v-32h-32zM256 64h32v-32h-32zM224 32h32v-32h-32zM256 0h32v-32h-32zM480 224h32v-32h-32zM32 224h32v-32h-32zM64 256h32v-32h-32zM0 256h32v-32h-32zM128 256h32v-32h-32zM160 224h32v-32h-32zM192 256h32v-32h-32zM288 224h32v-32h-32zM320 256h32v-32h-32zM352 224h32v-32h-32zM384 256h32v-32h-32zM416 224h32v-32h-32zM448 256h32v-32h-32zM480 160h32v-32h-32zM288 160h32v-32h-32zM320 192h32v-32h-32zM352 160h32v-32h-32zM416 160h32v-32h-32zM448 192h32v-32h-32zM480 96h32v-32h-32zM288 96h32v-32h-32zM320 128h32v-32h-32zM384 128h32v-32h-32zM416 96h32v-32h-32zM448 128h32v-32h-32zM480 32h32v-32h-32zM320 64h32v-32h-32zM352 32h32v-32h-32zM384 64h32v-32h-32zM416 32h32v-32h-32zM320 0h32v-32h-32zM384 0h32v-32h-32zM448 0h32v-32h-32z" />
<glyph unicode="&#xe035;" glyph-name="cart" d="M384.3 70.52c27.579 0 50.361-23.981 50.361-51.56s-22.782-50.361-50.361-50.361-51.56 22.782-51.56 50.361 23.981 51.56 51.56 51.56zM-25.78 479.4h83.934l23.981-50.361h378.904c14.389 0 25.18-11.991 25.18-26.38 0-4.796-1.199-8.394-3.597-11.99l-91.129-165.471c-8.394-15.588-25.18-26.38-44.365-26.38h-190.651l-22.782-41.967-1.199-3.597c0-3.597 2.398-5.995 5.995-5.995h296.168v-51.56h-306.96c-27.578 0-50.361 23.981-50.361 51.56 0 8.394 2.398 16.787 5.995 23.981l34.773 63.55-92.328 194.248h-51.559v50.361zM127.7 70.52c27.579 0 51.559-23.981 51.559-51.56s-23.982-50.361-51.559-50.361-50.361 22.782-50.361 50.361 22.782 51.56 50.361 51.56z" />
<glyph unicode="&#xe038;" glyph-name="coin" d="M256 480c-141.312 0-256-114.688-256-256s114.688-256 256-256 256 114.688 256 256-114.688 256-256 256zM292.096 68.096v-48.896h-68.352v49.408c-43.776 9.216-80.896 37.376-83.712 87.040h50.176c2.56-26.88 20.992-47.872 67.84-47.872 50.176 0 61.44 25.088 61.44 40.704 0 21.248-11.264 41.216-68.352 54.784-63.488 15.36-107.008 41.472-107.008 93.952 0 44.032 35.584 72.704 79.615 82.176v49.408h68.352v-49.92c47.616-11.52 71.424-47.616 72.96-86.784h-50.176c-1.28 28.416-16.384 47.872-56.832 47.872-38.4 0-61.44-17.408-61.44-41.984 0-21.504 16.64-35.584 68.352-48.896s107.008-35.584 107.008-100.096c-0.256-46.848-35.328-72.448-79.872-80.896z" />
<glyph unicode="&#xe039;" glyph-name="credit" d="M464 416h-416c-26.4 0-48-21.6-48-48v-288c0-26.4 21.6-48 48-48h416c26.4 0 48 21.6 48 48v288c0 26.4-21.6 48-48 48zM48 384h416c8.673 0 16-7.327 16-16v-48h-448v48c0 8.673 7.327 16 16 16zM464 64h-416c-8.673 0-16 7.327-16 16v144h448v-144c0-8.673-7.327-16-16-16zM64 160h32v-64h-32zM128 160h32v-64h-32zM192 160h32v-64h-32z" />
<glyph unicode="&#xe03a;" glyph-name="calculate" d="M192 448h-160c-17.6 0-32-14.4-32-32v-160c0-17.6 14.398-32 32-32h160c17.6 0 32 14.4 32 32v160c0 17.6-14.4 32-32 32zM192 320h-160v32h160v-32zM448 448h-160c-17.602 0-32-14.4-32-32v-416c0-17.6 14.398-32 32-32h160c17.6 0 32 14.4 32 32v416c0 17.6-14.4 32-32 32zM448 160h-160v32h160v-32zM448 256h-160v32h160v-32zM192 192h-160c-17.6 0-32-14.4-32-32v-160c0-17.6 14.398-32 32-32h160c17.6 0 32 14.4 32 32v160c0 17.6-14.4 32-32 32zM192 64h-64v-64h-32v64h-64v32h64v64h32v-64h64v-32z" />
<glyph unicode="&#xe03b;" glyph-name="credit-private" d="M48 416c-26.4 0-48-21.6-48-48v-288c0-26.4 21.6-48 48-48h148.8c6.133 12.404 17.767 23.022 32.6 32h-181.4c-8.673 0-16 7.327-16 16v144h235.1c18.095 37.642 56.435 64 100.9 64s82.805-26.358 100.9-64h11.1v-144c0-0.913-0.045-1.824-0.2-2.7 10.438-4.236 20.244-9.156 28.9-14.6 2.105 5.387 3.3 11.191 3.3 17.3v288c0 26.4-21.6 48-48 48h-416zM48 384h416c8.673 0 16-7.327 16-16v-48h-448v48c0 8.673 7.327 16 16 16zM64 160v-64h32v64h-32zM128 160v-64h32v64h-32zM192 160v-64h32v64h-32zM368 75.79c48 0 144-23.579 144-71.579v-36.21h-288v36.21c0 48 96 71.579 144 71.579zM368 96c-44.235 0-80 35.555-80 79.533s35.764 80.467 80 80.467c44.236 0 80-36.491 80-80.467s-35.764-79.533-80-79.533z" />
<glyph unicode="&#xe03c;" glyph-name="phone" d="M141 250c31-60 81-110 141-141l47 47c6 6 15 8 22 5 24-8 50-12 76-12 12 0 21-9 21-21v-75c0-12-9-21-21-21-200 0-363 163-363 363 0 12 9 21 21 21h75c12 0 21-9 21-21 0-27 4-52 12-76 2-7 1-16-5-22z" />
<glyph unicode="&#xe03e;" glyph-name="address-book" d="M84.2 480c-28.942 0-52.2-25.611-52.2-56.9v-398.2c0-31.288 23.258-56.9 52.2-56.9h247.6c28.68 0 52.2 25.611 52.2 56.9v398.2c0 31.288-23.519 56.9-52.2 56.9h-247.6zM208 336c31.020 0 56.1-25.019 56.1-56s-25.080-56-56.1-56-56.1 25.018-56.1 56c0 30.981 25.080 56 56.1 56zM208 188.6c37.373 0 112.1-20.573 112.1-57.9v-18.7h-224.2v18.7c0 37.327 74.728 57.9 112.1 57.9zM480 448h-64v-128h64zM480 288h-64v-128h64zM480 128h-64v-128h64z" />
<glyph unicode="&#xe03f;" glyph-name="notebook" d="M445.557 448h-381.557v-61.9h-46.792c-9.377 0-17.207-6.675-17.207-16.054v-34.099c0-9.377 7.829-18.048 17.207-18.048h46.792v-27.799h-46.792c-9.377 0-17.207-6.675-17.207-16.054v-34.1c0-9.378 8.441-21.382 17.207-18.047h46.792v-27.8h-46.792c-9.377 0-17.207-6.675-17.207-16.053v-34.101c0-9.376 7.829-18.048 17.207-18.048h46.792v-27.8h-46.792c-9.377 0-17.207-6.675-17.207-16.053v-34.101c0-9.378 7.829-18.048 17.207-18.048h46.792v-61.9h381.557c18.832 0 34.443 15.166 34.443 33.998v411.3c0 18.832-15.61 34.702-34.443 34.702zM192 1h-95.999v28.901h23.508c9.377 0 15.793 8.67 15.793 18.048v34.099c0 9.378-6.417 16.053-15.793 16.053h-23.508v27.8h23.508c9.378 0 15.793 8.67 15.793 18.048v34.099c0 9.378-6.417 16.053-15.793 16.053h-23.508v27.8h23.508c9.378 0 15.793 8.671 15.793 18.048v34.099c0 9.378-6.417 16.054-15.793 16.054h-23.508v27.8h23.508c9.378 0 15.793 8.669 15.793 18.047v34.099c0 9.379-6.416 16.054-15.793 16.054h-23.508v26.2h96.001v-411.3z" />
<glyph unicode="&#xe041;" glyph-name="pushpin" d="M280.892 480c-24.529-35.343-33.725-78.252-27.684-119.301l-129.702-129.702c-33.418 30.43-85.383 29.883-118.154-1.606l108.748-108.748-114.1-123.278 4.894-24.471 24.472-4.894 123.278 114.101 108.748-108.748c31.49 32.771 32.036 84.735 1.606 118.154l129.702 129.702c41.048-6.041 83.958 3.155 119.301 27.684l-231.107 231.107z" />
<glyph unicode="&#xe042;" glyph-name="location" d="M256 237.22c34.855 0 63.7 28.845 63.7 63.7s-28.845 63.7-63.7 63.7-63.7-28.845-63.7-63.7 28.845-63.7 63.7-63.7zM256 480c99.756 0 179.080-79.324 179.080-179.080 0-134.611-179.080-332.92-179.080-332.92s-179.080 198.31-179.080 332.92c0 99.756 79.324 179.080 179.080 179.080z" />
<glyph unicode="&#xe043;" glyph-name="location-active" d="M256 480c-99.072 0-179.2-80.128-179.2-179.2 0-134.4 179.2-332.8 179.2-332.8s179.2 198.4 179.2 332.8c0 99.072-80.128 179.2-179.2 179.2zM256 390.4c49.459 0 89.6-40.14 89.6-89.599s-40.14-89.599-89.6-89.599c-49.459 0-89.6 40.141-89.6 89.6s40.141 89.6 89.6 89.6zM256 364.8c-35.328 0-64-28.672-64-64s28.672-64 64-64c35.328 0 64 28.672 64 64s-28.672 64-64 64z" />
<glyph unicode="&#xe044;" glyph-name="compass" d="M312.488 167.512l97.352 210.328-210.328-97.352-97.352-210.329zM256 480c141.822 0 256-114.178 256-256s-114.178-256-256-256-256 114.178-256 256 114.178 256 256 256zM256 251.643c15.625 0 27.643-12.019 27.643-27.643s-12.019-27.643-27.643-27.643-27.643 12.019-27.643 27.643 12.019 27.643 27.643 27.643z" />
<glyph unicode="&#xe045;" glyph-name="map" d="M341.334 25.334v337.334l-170.667 60v-337.334zM497.334 480c8 0 14.666-6.667 14.666-14.666v-429.334c0-6.666-5.334-12-10.666-13.334l-160-54.666-170.667 60-152-58.666-4-1.334c-8 0-14.666 6.666-14.666 14.666v429.334c0 6.666 5.333 12 10.666 13.334l160 54.666 170.667-60 152 58.666z" />
<glyph unicode="&#xe047;" glyph-name="history" d="M274.284 429.711c-113.6 0-205.714-92.114-205.714-205.713h-68.57l88.913-88.913 1.6-3.2 92.343 92.114h-68.57c0 88.457 71.543 159.999 160 159.999s160-71.543 160-159.999c0-88.457-71.543-160-159.999-160-44.115 0-84.114 18.057-112.913 47.086l-32.457-32.457c37.257-37.257 88.457-60.342 145.37-60.342 113.599 0 205.712 92.114 205.712 205.714s-92.114 205.714-205.712 205.714zM256.001 320v-118.858l97.827-58.057 16.457 27.657-80 47.542v101.716h-34.286z" />
<glyph unicode="&#xe048;" glyph-name="clock" d="M262.463 352v-134.010l115.38-68.507-19.23-32.45-134.613 81.728v153.239h38.462zM256 18.479c112.976 0 205.521 92.545 205.521 205.521s-92.544 205.521-205.521 205.521c-112.977 0-205.521-92.544-205.521-205.521s92.544-205.521 205.521-205.521zM256 480c141.822 0 256-114.178 256-256s-114.178-256-256-256c-141.822 0-256 114.178-256 256s114.178 256 256 256z" />
<glyph unicode="&#xe04a;" glyph-name="alarm" d="M256 19.916c99.058 0 177.827 79.963 177.827 179.021s-78.769 177.827-177.827 177.827-177.827-78.769-177.827-177.827 78.769-179.021 177.827-179.021zM256 428.084c126.508 0 229.147-102.638 229.147-229.147s-102.638-229.147-229.147-229.147-229.147 102.638-229.147 229.147 102.638 229.147 229.147 229.147zM269.128 325.445v-133.669l101.445-59.673-19.096-31.031-120.541 71.608v152.764h38.191zM150.975 443.599l-116.96-97.865-32.224 38.191 116.96 97.865zM510.21 383.925l-32.224-39.385-116.961 99.058 32.224 38.191z" />
<glyph unicode="&#xe04c;" glyph-name="bell" d="M403.692 125.923l49.615-49.615v-24.231h-394.615v24.231l49.615 49.615v122.308c0 76.154 40.385 138.462 110.769 155.769v17.308c0 20.77 16.154 36.923 36.923 36.923s36.923-16.154 36.923-36.923v-17.308c70.385-17.308 110.769-80.769 110.769-155.769v-122.308zM256-21.769c-27.692 0-49.615 21.923-49.615 48.462h99.231c0-26.538-23.077-48.462-49.615-48.462z" />
<glyph unicode="&#xe04d;" glyph-name="bell-off" d="M47.4 466.7l-34.1-34.1 109.9-109.9c-9.735-22.152-14.9-47.45-14.9-74.5v-122.3l-49.6-49.6v-24.2h335.1l70.8-70.8 34.1 34.1-451.3 451.3zM256 458.2c-20.769 0-36.9-16.13-36.9-36.9v-17.3c-11.741-2.887-22.677-7.053-32.7-12.3l217.3-217.3v73.8c0 75-40.415 138.492-110.8 155.8v17.3c0 20.769-16.131 36.9-36.9 36.9zM206.4 26.7c0-26.539 21.908-48.5 49.6-48.5 26.538 0 49.6 21.962 49.6 48.5h-99.2z" />
<glyph unicode="&#xe04e;" glyph-name="calendar" d="M160 288h64v-64h-64zM256 288h64v-64h-64zM352 288h64v-64h-64zM64 96h64v-64h-64zM160 96h64v-64h-64zM256 96h64v-64h-64zM160 192h64v-64h-64zM256 192h64v-64h-64zM352 192h64v-64h-64zM64 192h64v-64h-64zM416 480v-32h-64v32h-224v-32h-64v32h-64v-512h480v512h-64zM448 0h-416v352h416v-352z" />
<glyph unicode="&#xe050;" glyph-name="print" d="M416 448v-96h-320v96h320zM435.079 217.838c14.423 0 26.442 10.817 26.442 25.239s-12.019 26.441-26.442 26.441c-14.423 0-25.24-12.019-25.24-26.441s10.817-25.239 25.24-25.239zM384 32v128h-256v-128zM435.079 319.999c42.065 0 76.921-34.855 76.921-76.921v-147.078h-96v-96h-320v96h-96v147.077c0 42.066 34.855 76.921 76.921 76.921h358.161z" />
<glyph unicode="&#xe051;" glyph-name="keyboard" d="M480 288v64h-64v-64zM480 192v64h-64v-64zM384 288v64h-64v-64zM384 192v64h-64v-64zM384 96v64h-256v-64zM96 288v64h-64v-64zM96 192v64h-64v-64zM128 256v-64h64v64zM128 352v-64h64v64zM224 256v-64h64v64zM224 352v-64h64v64zM461.521 400c27.643 0 50.479-22.835 50.479-50.479v-251.041c0-27.643-22.836-50.479-50.479-50.479h-411.042c-27.643 0-50.479 22.836-50.479 50.479v251.041c0 27.643 22.835 50.479 50.479 50.479z" />
<glyph unicode="&#xe052;" glyph-name="screen" d="M64 448c-4.4 0-8.744-0.444-12.9-1.3s-8.075-2.075-11.9-3.7c-3.825-1.625-7.494-3.694-10.9-6s-6.6-4.9-9.5-7.8c-2.9-2.9-5.494-6.094-7.8-9.5s-4.375-7.075-6-10.9c-1.625-3.825-2.844-7.744-3.7-11.9s-1.3-8.5-1.3-12.9v-256c0-4.4 0.444-8.743 1.3-12.9s2.075-8.075 3.7-11.9c1.625-3.825 3.694-7.494 6-10.9s4.9-6.6 7.8-9.5c2.9-2.9 6.094-5.494 9.5-7.8s7.075-4.375 10.9-6c3.825-1.625 7.744-2.844 11.9-3.7s8.5-1.3 12.9-1.3h160v-32h-96v-32h256v32h-96v32h160c4.4 0 8.743 0.443 12.9 1.3s8.075 2.075 11.9 3.7c3.825 1.625 7.494 3.694 10.9 6s6.6 4.9 9.5 7.8c2.9 2.9 5.494 6.094 7.8 9.5s4.375 7.075 6 10.9c1.625 3.825 2.844 7.743 3.7 11.9s1.3 8.5 1.3 12.9v256c0 4.4-0.443 8.744-1.3 12.9s-2.075 8.075-3.7 11.9c-1.625 3.825-3.694 7.494-6 10.9s-4.9 6.6-7.8 9.5c-2.9 2.9-6.094 5.494-9.5 7.8s-7.075 4.375-10.9 6c-3.825 1.625-7.743 2.844-11.9 3.7s-8.5 1.3-12.9 1.3h-384zM64 384h384v-256h-384v256z" />
<glyph unicode="&#xe054;" glyph-name="mobile" d="M384 96v320h-256v-320zM255.456-8.035c19.608 0 34.859 15.251 34.859 34.86s-15.251 34.86-34.859 34.86c-19.608 0-34.859-15.251-34.859-34.86s15.251-34.86 34.859-34.86zM358.277 480c31.591 0 57.736-27.234 57.736-58.825v-394.35c0-31.591-26.144-58.825-57.736-58.825h-204.542c-31.591 0-57.736 27.234-57.736 58.825v394.35c0 31.591 26.144 58.825 57.736 58.825z" />
<glyph unicode="&#xe056;" glyph-name="tablet" d="M400 480h-320c-26.4 0-48-21.6-48-48v-416c0-26.4 21.6-48 48-48h320c26.4 0 48 21.6 48 48v416c0 26.4-21.6 48-48 48zM240-16c-8.836 0-16 7.163-16 16s7.164 16 16 16 16-7.163 16-16-7.164-16-16-16zM384 32h-288v384h288v-384z" />
<glyph unicode="&#xe059;" glyph-name="task" d="M144 384c-4.86 0-9.464-2.204-12.5-6l-128-160c-2.269-2.837-3.5-6.367-3.5-10v-112c0-4.42 0.448-8.733 1.3-12.9s2.081-8.171 3.7-12c1.619-3.829 3.601-7.495 5.9-10.9s4.905-6.605 7.8-9.5c2.895-2.895 6.096-5.5 9.5-7.8s7.072-4.281 10.9-5.9c3.828-1.619 7.833-2.848 12-3.7s8.48-1.3 12.9-1.3h384c4.42 0 8.733 0.448 12.9 1.3s8.171 2.081 12 3.7c3.829 1.619 7.495 3.601 10.9 5.9s6.605 4.906 9.5 7.8c2.895 2.895 5.5 6.095 7.8 9.5s4.281 7.072 5.9 10.9c1.619 3.829 2.848 7.833 3.7 12s1.3 8.48 1.3 12.9v112c0 3.633-1.23 7.163-3.5 10l-128 160c-3.037 3.796-7.639 6-12.5 6h-224zM151.7 352h208.6l119.7-149.6v-10.4h-112l-64-64h-96l-64 64h-112v10.4l119.7 149.6z" />
<glyph unicode="&#xe060;" glyph-name="save" d="M288 214h75l-107 106-107-106h75v-86h64zM413 277c55-4 99-50 99-106 0-59-48-107-107-107h-277c-71 0-128 57-128 128 0 66 50 120 114 127 27 51 80 87 142 87 78 0 142-55 157-129z" />
<glyph unicode="&#xe062;" glyph-name="undo" d="M262.166 302.682c101.725 0 187.010-66.789 217.834-158.239l-51.376-16.441c-22.606 69.871-88.368 120.22-166.458 120.22-43.156 0-82.202-15.412-113.028-41.101l80.147-79.12h-197.285v197.284l78.092-79.118c40.073 34.936 93.505 56.514 152.074 56.514z" />
<glyph unicode="&#xe063;" glyph-name="redo" d="M249.834 302.682c-101.725 0-187.010-66.789-217.834-158.239l51.376-16.441c22.606 69.871 88.368 120.22 166.458 120.22 43.156 0 82.202-15.412 113.027-41.101l-80.147-79.12h197.285v197.284l-78.092-79.118c-40.073 34.936-93.505 56.514-152.074 56.514z" />
<glyph unicode="&#xe068;" glyph-name="forward-message" d="M320 288c-173.833-24.5-263.5-138.668-288-263.501 61.833 87.5 163.165 135.501 288 135.501v-128l160 192-160 192v-128z" />
<glyph unicode="&#xe069;" glyph-name="reply-message" d="M192 288c173.833-24.5 263.5-138.668 288-263.501-61.833 87.5-163.165 135.501-288 135.501v-128l-160 192 160 192v-128z" />
<glyph unicode="&#xe06a;" glyph-name="bubble" d="M256 448c141.385 0 256-93.125 256-208s-114.615-208-256-208c-13.578 0-26.905 0.867-39.912 2.522-54.989-54.989-120.625-64.85-184.088-66.298v13.458c34.268 16.789 64 47.37 64 82.318 0 4.877-0.379 9.665-1.082 14.348-57.898 38.132-94.918 96.377-94.918 161.652 0 114.875 114.615 208 256 208z" />
<glyph unicode="&#xe070;" glyph-name="user" d="M256 167.673c74.666 0 224-36.678 224-111.346v-56.327h-448v56.327c0 74.666 149.333 111.346 224 111.346zM256 224c-61.567 0-111.346 49.778-111.346 111.346s49.778 112.654 111.346 112.654 111.346-51.088 111.346-112.654-49.778-111.346-111.346-111.346z" />
<glyph unicode="&#xe071;" glyph-name="users" d="M160.5 385c-35.276 0-64.5-29.224-64.5-64.5s29.225-64.5 64.5-64.5c35.276 0 63.5 29.224 63.5 64.5s-28.224 64.5-63.5 64.5zM352 384c-35 0-64-29-64-64s29-64 64-64c35 0 64 29 64 64s-29 64-64 64zM160.5 203.4c-54.469 0-160.5-27.231-160.5-81.7v-57.7h320v57.7c-2.695 54.401-105.032 81.7-159.5 81.7zM348.6 203.4c-6.536 0-14.175-0.011-21.8-1.1 27.234-19.608 45.8-45.74 45.8-80.6v-57.7h139.4v57.7c0 54.469-108.932 81.7-163.4 81.7z" />
<glyph unicode="&#xe075;" glyph-name="user-tie" d="M160 352c0 53.020 42.981 96 96 96s96-42.98 96-96c0-53.019-42.981-96-96-96s-96 42.981-96 96zM384.039 224h-17.712l-99.552-202.122 37.225 186.122-48 48-48-48 37.225-186.122-99.551 202.122h-17.712c-63.962 0-63.962-42.993-63.962-96v-160h384v160c0 53.007 0 96-63.961 96z" />
<glyph unicode="&#xe079;" glyph-name="spinner" d="M512 224c-0.639 33.431-7.892 66.758-21.288 97.231-13.352 30.5-32.731 58.129-56.521 80.96-23.776 22.848-51.972 40.91-82.492 52.826-30.502 11.962-63.298 17.676-95.699 16.983-32.405-0.641-64.666-7.687-94.167-20.678-29.524-12.948-56.271-31.735-78.367-54.788-22.112-23.041-39.58-50.354-51.093-79.899-11.557-29.531-17.064-61.26-16.373-92.635 0.643-31.38 7.482-62.574 20.067-91.103 12.544-28.55 30.738-54.414 53.055-75.774 22.305-21.377 48.736-38.252 77.307-49.36 28.559-11.152 59.223-16.451 89.571-15.763 30.354 0.645 60.481 7.277 88.038 19.457 27.575 12.141 52.558 29.74 73.183 51.322 20.641 21.57 36.922 47.118 47.627 74.715 6.517 16.729 10.94 34.2 13.271 51.899 0.623-0.036 1.249-0.060 1.881-0.060 17.673 0 32 14.326 32 32 0 0.898-0.047 1.786-0.119 2.666h0.119zM461.153 139.026c-11.736-26.601-28.742-50.7-49.589-70.59-20.835-19.905-45.5-35.593-72.122-45.895-26.614-10.339-55.145-15.226-83.442-14.541-28.302 0.649-56.298 6.868-81.91 18.237-25.625 11.333-48.842 27.745-67.997 47.856-19.169 20.099-34.264 43.882-44.161 69.529-9.935 25.642-14.614 53.107-13.932 80.378 0.651 27.276 6.664 54.206 17.627 78.845 10.929 24.65 26.749 46.985 46.123 65.405 19.365 18.434 42.265 32.935 66.937 42.428 24.669 9.53 51.068 14.003 77.313 13.322 26.25-0.653 52.114-6.459 75.781-17.017 23.676-10.525 45.128-25.751 62.812-44.391 17.698-18.629 31.605-40.647 40.695-64.344 9.124-23.696 13.391-49.029 12.712-74.248h0.119c-0.072-0.88-0.119-1.768-0.119-2.666 0-16.506 12.496-30.087 28.543-31.812-3.112-17.411-8.265-34.409-15.39-50.496z" />
<glyph unicode="&#xe07f;" glyph-name="search" d="M190.8 157.426c72.75 0 131.775 59.024 131.775 131.774s-59.024 131.775-131.775 131.775c-72.751 0-131.775-59.024-131.775-131.775s59.024-131.774 131.775-131.774zM366.498 157.426l145.502-145.501-43.925-43.926-145.501 145.501v23.336l-8.236 8.236c-32.944-28.825-76.868-45.297-123.539-45.297-105.694 0-190.799 83.732-190.799 189.428s85.104 190.798 190.799 190.798c105.695 0 189.426-85.104 189.426-190.798 0-46.67-16.471-90.595-45.297-123.539l8.236-8.236h23.336z" />
<glyph unicode="&#xe080;" glyph-name="zoom-in" d="M288 256h-64v-64h-64v64h-64.001v64h64.001l-0.001 64h64l0.001-64h64zM190.8 157.426c72.75 0 131.775 59.024 131.775 131.774s-59.024 131.775-131.775 131.775c-72.751 0-131.775-59.024-131.775-131.775s59.024-131.774 131.775-131.774zM366.498 157.426l145.502-145.501-43.925-43.926-145.501 145.501v23.336l-8.236 8.236c-32.944-28.825-76.868-45.297-123.539-45.297-105.694 0-190.799 83.732-190.799 189.428s85.104 190.798 190.799 190.798c105.695 0 189.426-85.104 189.426-190.798 0-46.67-16.471-90.595-45.297-123.539l8.236-8.236h23.336z" />
<glyph unicode="&#xe081;" glyph-name="zoom-out" d="M288 256h-192v64h192zM190.8 157.426c72.75 0 131.775 59.024 131.775 131.774s-59.024 131.775-131.775 131.775c-72.751 0-131.775-59.024-131.775-131.775s59.024-131.774 131.775-131.774zM366.498 157.426l145.502-145.501-43.925-43.926-145.501 145.501v23.336l-8.236 8.236c-32.944-28.825-76.868-45.297-123.539-45.297-105.694 0-190.799 83.732-190.799 189.428s85.104 190.798 190.799 190.798c105.695 0 189.426-85.104 189.426-190.798 0-46.67-16.471-90.595-45.297-123.539l8.236-8.236h23.336z" />
<glyph unicode="&#xe084;" glyph-name="expand" d="M512 480v-208l-80 80-96-96-48 48 96 96-80 80zM224 144l-96-96 80-80h-208v208l80-80 96 96z" />
<glyph unicode="&#xe085;" glyph-name="contract" d="M224 192v-208l-80 80-96-96-48 48 96 96-80 80zM512 432l-96-96 80-80h-208v208l80-80 96 96z" />
<glyph unicode="&#xe087;" glyph-name="key" d="M139.439 177.158c25.055 0 46.843 21.787 46.843 46.843s-21.787 46.843-46.843 46.843-45.753-21.787-45.753-46.843 20.698-46.843 45.753-46.843zM271.251 270.843h240.749v-93.685h-46.842v-92.596h-92.596v92.596h-101.31c-18.519-54.468-70.808-92.596-131.813-92.596-77.344 0-139.439 62.094-139.439 139.439s62.093 139.439 139.439 139.439c61.005 0 113.293-38.127 131.813-92.596z" />
<glyph unicode="&#xe089;" glyph-name="lock" d="M256 480c-2.13 0-4.197-0.092-6.3-0.2-1.501-0.077-3.013-0.169-4.5-0.3-1.815-0.159-3.607-0.361-5.4-0.6-1.578-0.21-3.141-0.43-4.7-0.7-0.671-0.116-1.333-0.273-2-0.4-0.669-0.127-1.334-0.262-2-0.4-1.876-0.39-3.756-0.825-5.6-1.3-0.398-0.103-0.804-0.194-1.2-0.3-1.545-0.416-3.080-0.826-4.6-1.3-1.788-0.558-3.548-1.163-5.3-1.8-0.129-0.046-0.272-0.053-0.4-0.1-2.914-1.069-5.794-2.32-8.6-3.6-0.431-0.197-0.871-0.398-1.3-0.6-0.706-0.332-1.402-0.655-2.1-1-0.59-0.292-1.215-0.599-1.8-0.9-0.818-0.421-1.593-0.861-2.4-1.3-1.22-0.663-2.405-1.297-3.6-2-0.524-0.308-1.082-0.584-1.6-0.9-0.417-0.254-0.786-0.541-1.2-0.8-1.32-0.825-2.614-1.627-3.9-2.5-0.137-0.093-0.263-0.207-0.4-0.3-1.422-0.974-2.822-1.969-4.2-3-1.588-1.188-3.072-2.438-4.6-3.7-1.088-0.899-2.144-1.764-3.2-2.7-1.043-0.922-2.089-1.844-3.1-2.8-0.236-0.223-0.466-0.475-0.7-0.7-0.578-0.556-1.133-1.133-1.7-1.7-0.886-0.887-1.742-1.787-2.6-2.7-0.84-0.894-1.686-1.782-2.5-2.7-0.063-0.072-0.137-0.128-0.2-0.2-0.89-1.009-1.743-2.062-2.6-3.1-0.225-0.272-0.478-0.525-0.7-0.8-1.012-1.248-2.036-2.512-3-3.8-1.060-1.42-2.101-2.934-3.1-4.4-0.094-0.138-0.207-0.262-0.3-0.4-0.859-1.273-1.688-2.595-2.5-3.9-0.873-1.403-1.684-2.861-2.5-4.3-0.060-0.105-0.141-0.195-0.2-0.3-0.298-0.529-0.609-1.066-0.9-1.6-0.487-0.895-0.935-1.792-1.4-2.7-0.778-1.52-1.484-3.043-2.2-4.6-0.714-1.553-1.45-3.113-2.1-4.7-0.659-1.608-1.309-3.259-1.9-4.9-0.586-1.625-1.082-3.243-1.6-4.9-0.312-0.997-0.613-1.993-0.9-3-0.19-0.67-0.421-1.326-0.6-2-0.079-0.298-0.123-0.601-0.2-0.9-0.359-1.393-0.689-2.788-1-4.2-1.869-8.483-2.9-17.264-2.9-26.3v-37.7h-21c-26.819 0-48.7-21.881-48.7-48.7v-255.3c0.023-1.404 0.16-2.827 0.3-4.2 0.304-3.276 0.93-6.437 1.9-9.5 0.441-1.392 0.934-2.762 1.5-4.1 0.052-0.126 0.046-0.274 0.1-0.4 0.059-0.136 0.14-0.264 0.2-0.4 0.562-1.288 1.233-2.572 1.9-3.8 0.264-0.474 0.52-0.935 0.8-1.4 0.591-1.007 1.24-1.94 1.9-2.9 7.997-11.632 20.84-19.637 35.6-21 1.475-0.136 2.991-0.3 4.5-0.3 0.133-0.001 0.266 0 0.4 0h286.2c1.507 0.012 3.020 0.148 4.5 0.3 14.76 1.363 27.603 9.368 35.6 21 0.659 0.959 1.308 1.893 1.9 2.9 1.055 1.797 2.077 3.667 2.9 5.6 0.054 0.125 0.047 0.274 0.1 0.4 0.566 1.337 1.060 2.708 1.5 4.1 0.969 3.063 1.596 6.224 1.9 9.5 0.167 1.634 0.3 3.324 0.3 5v254.5c0 26.819-21.881 48.7-48.7 48.7h-21v37.7c0 67.428-54.871 122.3-122.3 122.3zM256 433.1c41.142 0 75.4-34.257 75.4-75.4v-37.7h-150.8v37.7c0 9.221 1.667 18.079 4.8 26.3 0.667 1.751 1.407 3.511 2.2 5.2 0.139 0.295 0.257 0.608 0.4 0.9 0.097 0.201 0.201 0.4 0.3 0.6 0.455 0.914 1.010 1.807 1.5 2.7 0.478 0.873 0.988 1.748 1.5 2.6 0.302 0.503 0.587 1.005 0.9 1.5 0.451 0.712 0.927 1.404 1.4 2.1 0.708 1.042 1.442 2.095 2.2 3.1 0.529 0.7 1.048 1.418 1.6 2.1 0.668 0.827 1.399 1.602 2.1 2.4 0.296 0.336 0.599 0.669 0.9 1 0.976 1.072 1.966 2.085 3 3.1 0.49 0.481 0.997 0.933 1.5 1.4 0.904 0.841 1.756 1.702 2.7 2.5 0.198 0.168 0.4 0.334 0.6 0.5 0.036 0.029 0.065 0.070 0.1 0.1 0.185 0.153 0.413 0.249 0.6 0.4 1.202 0.973 2.441 2 3.7 2.9 0.136 0.096 0.264 0.204 0.4 0.3 1.465 1.033 2.963 1.971 4.5 2.9 0.91 0.548 1.867 1.089 2.8 1.6 0.369 0.202 0.727 0.404 1.1 0.6 0.498 0.262 0.996 0.549 1.5 0.8 1.548 0.771 3.197 1.435 4.8 2.1 1.756 0.728 3.483 1.406 5.3 2 1.757 0.575 3.593 1.155 5.4 1.6 0.064 0.015 0.136-0.016 0.2 0 0.468 0.114 0.929 0.195 1.4 0.3 0.405 0.090 0.793 0.217 1.2 0.3 1.119 0.228 2.265 0.423 3.4 0.6 1.239 0.193 2.543 0.369 3.8 0.5 1.056 0.109 2.133 0.135 3.2 0.2 1.47 0.089 2.91 0.2 4.4 0.2zM256 192c25.675 0 48-22.325 48-48s-22.325-48-48-48c-25.674 0-48 22.325-48 48s22.326 48 48 48z" />
<glyph unicode="&#xe08a;" glyph-name="unlocked" d="M256 96c26.4 0 48 21.6 48 48s-21.6 48-48 48c-26.4 0-48-21.6-48-48s21.6-48 48-48zM256 480c-58.394 0-107.326-41.183-119.4-96h48.8c10.851 28.476 38.673 49.1 70.6 49.1 41.142 0 75.4-34.257 75.4-75.4v-37.7h-218.7c-26.819 0-48.7-21.881-48.7-48.7v-254.5c0-26.819 21.881-48.8 48.7-48.8h286.6c26.819 0 48.7 21.981 48.7 48.8v254.5c0 26.819-21.881 48.7-48.7 48.7h-21v37.7c0 67.428-54.871 122.3-122.3 122.3zM112.7 271.3h286.6v-254.5h-286.6v254.5z" />
<glyph unicode="&#xe08e;" glyph-name="slider" d="M352 288v192h64v-64h96v-64h-96v-64.001h-64zM511.999 192h-287.999v64h287.999zM96 320h64v-192h-64.001v64h-96v64h96v64.001zM288-31.999h-64v192h64v-64.001h223.999v-64h-223.999v-64zM0 416h288v-64h-288zM0 96h160v-64h-160z" />
<glyph unicode="&#xe090;" glyph-name="cog" d="M256 145.127c43.117 0 78.873 35.756 78.873 78.873s-35.756 78.873-78.873 78.873-78.873-35.756-78.873-78.873 35.756-78.873 78.873-78.873zM423.212 201.915l47.324-36.807c4.207-3.155 5.259-9.465 2.103-14.724l-45.22-77.822c-3.155-5.259-8.413-6.31-13.672-4.207l-55.738 22.085c-11.568-8.413-24.188-16.826-37.859-22.085l-8.413-58.892c-1.052-5.259-5.259-9.465-10.517-9.465h-90.442c-5.259 0-9.465 4.207-10.517 9.465l-8.413 58.892c-13.672 5.259-26.291 12.62-37.859 22.085l-55.737-22.085c-5.259-2.103-10.517-1.052-13.671 4.207l-45.221 77.822c-3.155 5.259-2.103 11.568 2.103 14.724l47.324 36.807c-1.052 7.361-1.052 14.724-1.052 22.084s0 14.724 1.052 22.084l-47.324 36.807c-4.207 3.155-5.259 9.465-2.103 14.724l45.221 77.822c3.154 5.259 8.413 6.31 13.671 4.207l55.737-22.084c11.567 8.413 24.188 16.826 37.859 22.084l8.413 58.892c1.052 5.259 5.259 9.465 10.517 9.465h90.441c5.259 0 9.465-4.207 10.517-9.465l8.413-58.892c13.672-5.259 26.291-12.619 37.859-22.084l55.738 22.084c5.259 2.103 10.517 1.052 13.672-4.207l45.22-77.822c3.155-5.259 2.103-11.567-2.103-14.724l-47.324-36.807c1.052-7.361 1.052-14.724 1.052-22.084s0-14.723-1.052-22.084z" />
<glyph unicode="&#xe091;" glyph-name="conditions" d="M326.8 448c-66.527 0.736-127.351-43.34-145.4-110.7-21.392-79.834 25.968-160.309 105.8-181.7 35.252-9.445 71.683-5.805 102.4 9.3l4.6-7.9-4.7-17.7 80.4-139.3 42.1 24.3-80.5 139.3-17.6 4.8-4.5 7.8c28.44 19.049 49.755 48.95 59.2 84.2 21.391 79.832-24.666 161.009-104.5 182.4-12.474 3.343-24.98 5.064-37.3 5.2zM326.4 395.4c7.97-0.078 16.047-1.142 24.1-3.3 51.538-13.81 82.209-66.863 68.4-118.4s-66.863-82.109-118.4-68.3c-51.538 13.81-82.109 66.762-68.3 118.3 11.652 43.485 51.163 72.123 94.2 71.7zM30.7 416c-13.627-0.544-25.886-9.838-29.6-23.7-4.572-17.061 5.539-34.629 22.6-39.2 2.766-0.741 5.565-1.098 8.3-1.1 0.428-0 0.874-0.017 1.3 0h107.5c14.135-0.012 27.070 9.406 30.9 23.7 4.571 17.061-5.539 34.629-22.6 39.2-2.766 0.741-5.558 1.093-8.3 1.1h-107.7c-0.365 0.014-0.736-0.001-1.1 0-0.43 0.001-0.874 0.017-1.3 0zM30.7 96c-13.627-0.544-25.886-9.838-29.6-23.7-4.572-17.061 5.539-34.628 22.6-39.2 2.766-0.741 5.566-1.099 8.3-1.1 0.428 0 0.874-0.017 1.3 0h254.7c14.131-0.007 27.070 9.406 30.9 23.7 4.572 17.061-5.539 34.628-22.6 39.2-2.766 0.741-5.565 1.099-8.3 1.1h-256c-0.428 0-0.875 0.017-1.3 0zM30.698 255.992c-13.627-0.544-25.886-9.838-29.6-23.7-4.572-17.061 5.539-34.629 22.6-39.2 2.766-0.741 5.565-1.098 8.3-1.1 0.428-0 0.874-0.016 1.3 0h94.7c14.135-0.013 27.070 9.406 30.9 23.7 4.572 17.061-5.539 34.629-22.6 39.2-2.766 0.741-5.558 1.093-8.3 1.1h-94.9c-0.365 0.013-0.736-0.001-1.1 0-0.43 0.001-0.874 0.016-1.3 0z" />
<glyph unicode="&#xe092;" glyph-name="wand" d="M128 384l-64 64h-32v-32l64-64zM160 480h32v-64h-32zM288 320h64v-32h-64zM320 416v32h-32l-64-64 32-32zM0 320h64v-32h-64zM160 192h32v-64h-32zM32 192v-32h32l64 64-32 32zM505 39l-318.059 318.059c-9.334 9.334-24.607 9.334-33.941 0l-30.059-30.059c-9.334-9.334-9.334-24.607 0-33.941l318.059-318.059c9.334-9.334 24.607-9.334 33.941 0l30.059 30.059c9.334 9.334 9.334 24.607 0 33.941zM240 208l-96 96 32 32 96-96-32-32z" />
<glyph unicode="&#xe095;" glyph-name="pie" d="M288 480v-224h224c0 123.76-100.24 224-224 224zM224 416c-123.76 0-224-100.24-224-224s100.24-224 224-224c123.76 0 224 100.24 224 224h-224v224z" />
<glyph unicode="&#xe096;" glyph-name="stats" d="M48 64c-26.51 0-48 21.49-48 48s21.49 48 48 48c1.414 0 2.811-0.074 4.194-0.192l83.596 85.993c-4.92 7.535-7.79 16.531-7.79 26.201 0 26.51 21.49 48 48 48s48-21.49 48-48c0-9.671-2.87-18.666-7.79-26.201l83.596-85.993c1.383 0.118 2.78 0.192 4.194 0.192 1.068 0 2.124-0.048 3.175-0.115l117.178 149.060c-5.268 7.704-8.353 17.018-8.353 27.055 0 26.51 21.49 48 48 48s48-21.49 48-48c0-26.51-21.49-48-48-48-1.070 0-2.124 0.047-3.175 0.116l-117.178-149.062c5.268-7.703 8.353-17.018 8.353-27.055 0-26.51-21.49-48-48-48s-48 21.49-48 48c0 9.67 2.87 18.666 7.789 26.201l-83.595 85.992c-1.383-0.119-2.78-0.192-4.194-0.192s-2.811 0.071-4.194 0.192l-83.596-85.993c4.92-7.534 7.79-16.53 7.79-26.2 0-26.51-21.49-48-48-48z" />
<glyph unicode="&#xe097;" glyph-name="bars" d="M352 320h128v-320h-128zM32 0.001v224h128v-224zM192 0.001v448h128v-448z" />
<glyph unicode="&#xe098;" glyph-name="bars-stack" d="M160 256h-128v-256h128zM144 32h-96v64h96zM320 352h-128v-352h128zM304 32h-96v128h96zM480 448h-128v-448h128zM464 32h-96v192h96z" />
<glyph unicode="&#xe099;" glyph-name="gantt" d="M0 480v-512h512v32h-480v480zM64 480v-64h128v64zM128 384v-64h128v64zM192 288v-64h160v64zM256 192v-64h160v64zM288 96v-64h192v64z" />
<glyph unicode="&#xe09a;" glyph-name="trophy" d="M416 384v64h-320v-64h-96v-64c0-53.019 42.979-96 96-96 10.038 0 19.715 1.543 28.81 4.401 23.087-33.004 58.304-56.898 99.19-65.198v-99.203h-32c-35.347 0-64-28.653-64-64h256c0 35.347-28.653 64-64 64h-32v99.203c40.886 8.3 76.103 32.193 99.19 65.198 9.095-2.858 18.772-4.401 28.81-4.401 53.021 0 96 42.981 96 96v64h-96zM96 262c-31.981 0-58 26.019-58 58v32h58v-32c0-20.093 3.715-39.316 10.477-57.034-3.401-0.623-6.899-0.966-10.477-0.966zM474 320c0-31.981-26.019-58-58-58-3.578 0-7.076 0.343-10.477 0.966 6.762 17.718 10.477 36.941 10.477 57.034v32h58v-32z" />
<glyph unicode="&#xe09d;" glyph-name="food" d="M352 377.841c0 45.672 57.421 102.159 128 102.159v-512h-63.403v204.319h-64.597v205.521zM237.521 300.92v179.080h50.479v-179.080c0-54.084-42.065-98.554-96.15-102.16v-230.76h-63.7v230.76c-54.084 3.606-96.15 48.075-96.15 102.159v179.080h51.68v-179.080h50.479v179.080h51.681v-179.080h51.68z" />
<glyph unicode="&#xe0a0;" glyph-name="meter" d="M256 448c141.385 0 256-114.615 256-256 0-96.396-53.288-180.333-132.004-224h-247.992c-78.716 43.667-132.004 127.604-132.004 224 0 141.385 114.615 256 256 256zM400.957 47.043c38.719 38.72 60.043 90.199 60.043 144.957h-45v32h42.519c-3.507 22.499-10.695 44.073-21.282 64h-53.237v32h32.142c-4.719 5.881-9.776 11.548-15.185 16.957-23.111 23.11-50.77 40.019-80.957 49.899v-34.856h-32v42.52c-10.491 1.634-21.18 2.48-32 2.48s-21.509-0.845-32-2.48v-42.52h-32v34.856c-30.186-9.88-57.846-26.788-80.957-49.899-5.409-5.409-10.466-11.076-15.185-16.957h32.142v-32h-53.238c-10.587-19.927-17.776-41.501-21.282-64h42.52v-32h-45c0-54.758 21.324-106.237 60.043-144.957 5.355-5.355 10.962-10.364 16.78-15.043h96.177l18.286 256h27.428l18.286-256h96.177c5.818 4.679 11.426 9.689 16.78 15.043z" />
<glyph unicode="&#xe0a3;" glyph-name="legal" d="M0 14.546h279.273v-46.546h-279.273zM98.793 315.462l65.862 65.792 329.077-329.123-65.815-65.815zM263.377 480l131.654-131.631-65.862-65.862-131.584 131.724zM65.746 282.531l131.654-131.654-65.815-65.815-131.654 131.654z" />
<glyph unicode="&#xe0a7;" glyph-name="remove" d="M448 448v-64h-384v64h96l32 32h128l32-32h96zM95.996 25.334l0.001 326.666h320.005l-0.001-326.666c0-30.666-26.666-57.334-57.334-57.334h-205.338c-30.666 0-57.334 26.666-57.334 57.334z" />
<glyph unicode="&#xe0aa;" glyph-name="airplane" d="M480 128v64l-185.6 96v153.6c0 21.248-17.152 38.4-38.4 38.4s-38.4-17.152-38.4-38.4v-153.6l-185.6-96v-64l185.6 64v-160l-57.6-25.6v-38.4l96 32 96-32v38.4l-57.6 25.6v160z" />
<glyph unicode="&#xe0ab;" glyph-name="truck" d="M512 192l-64 128h-96v64c0 17.6-14.4 32-32 32h-288c-17.6 0-32-14.4-32-32v-256l32-32h40.583c-5.449-9.416-8.583-20.339-8.583-32 0-35.346 28.654-64 64-64s64 28.654 64 64c0 11.661-3.134 22.584-8.583 32h177.167c-5.449-9.416-8.584-20.339-8.584-32 0-35.346 28.654-64 64-64s64 28.654 64 64c0 11.661-3.135 22.584-8.584 32h40.584v96zM352 192v96h66.334l48-96h-114.334z" />
<glyph unicode="&#xe0ae;" glyph-name="target" d="M256 61.685c90.417 0 162.315 71.898 162.315 162.315s-71.898 162.315-162.315 162.315-162.315-71.898-162.315-162.315 71.898-162.315 162.315-162.315zM464.068 246.876h47.932v-45.753h-47.932c-10.894-96.953-88.238-174.298-185.192-185.191v-47.932h-45.753v47.932c-96.953 10.894-174.298 88.238-185.191 185.192h-47.932v45.753h47.932c10.894 96.953 88.239 174.298 185.191 185.191v47.932h45.753v-47.932c96.953-10.894 174.298-88.239 185.192-185.191zM256 316.596c51.2 0 92.596-41.395 92.596-92.596s-41.395-92.596-92.596-92.596-92.596 41.395-92.596 92.596 41.395 92.596 92.596 92.596z" />
<glyph unicode="&#xe0b1;" glyph-name="switch" d="M421.334 418.666c54.666-46.666 90.666-117.334 90.666-194.666 0-141.333-114.666-256-256-256s-256 114.666-256 256c0 77.334 36 148 90.666 194.667l40-40c-44-36.001-73.334-92.001-73.334-154.667 0-110.666 88-198.667 198.667-198.667s198.667 88 198.667 198.667c0 62.666-28 117.334-73.334 153.333zM288 480v-288h-64v288z" />
<glyph unicode="&#xe0b6;" glyph-name="numbered-list" d="M192 64h320v-64h-320zM192 256h320v-64h-320zM192 448h320v-64h-320zM96 480v-128h-32v96h-32v32zM64 217v-25h64v-32h-96v73l64 30v25h-64v32h96v-73zM128 128v-160h-96v32h64v32h-64v32h64v32h-64v32z" />
<glyph unicode="&#xe0ba;" glyph-name="cloud" d="M413 266c55-4 99-50 99-106 0-59-48-107-107-107h-277c-71 0-128 57-128 128 0 66 50 120 114 127 27 51 80 87 142 87 78 0 142-55 157-129z" />
<glyph unicode="&#xe0bd;" glyph-name="download" d="M64.001 32h383.999v-64h-384v64zM448 288l-192-192-192 192h96v192h192v-192z" />
<glyph unicode="&#xe0be;" glyph-name="upload" d="M64.001 32h383.999v-64h-384v64zM64.001 288l192 192 192-192h-96v-192h-192v192z" />
<glyph unicode="&#xe0c1;" glyph-name="globe" d="M255.744 480c-141.312 0-255.744-114.688-255.744-256s114.432-256 255.744-256c141.568 0 256.255 114.688 256.255 256s-114.688 256-256.255 256zM433.151 326.4h-75.52c-8.192 32-19.968 62.72-35.328 91.135 47.104-16.128 86.272-48.896 110.848-91.135zM256 427.776c21.248-30.72 37.888-64.768 48.896-101.376h-97.792c11.008 36.608 27.648 70.656 48.896 101.376zM57.856 172.8c-4.096 16.384-6.656 33.536-6.656 51.2s2.56 34.816 6.656 51.2h86.528c-2.048-16.896-3.584-33.792-3.584-51.2s1.536-34.304 3.584-51.2h-86.528zM78.849 121.6h75.52c8.192-32 19.968-62.72 35.328-91.135-47.104 16.128-86.272 48.64-110.848 91.135zM154.368 326.4h-75.52c24.576 42.496 63.744 75.007 110.848 91.135-15.36-28.416-27.136-59.136-35.328-91.135zM256 20.224c-21.248 30.72-37.888 64.768-48.896 101.376h97.792c-11.008-36.608-27.648-70.656-48.896-101.376zM315.904 172.8h-119.808c-2.304 16.896-4.096 33.792-4.096 51.2s1.792 34.56 4.096 51.2h119.808c2.304-16.64 4.096-33.792 4.096-51.2s-1.792-34.304-4.096-51.2zM322.304 30.464c15.36 28.416 27.136 59.136 35.328 91.135h75.52c-24.576-42.24-63.744-75.007-110.848-91.135zM367.616 172.8c2.048 16.896 3.584 33.792 3.584 51.2s-1.536 34.304-3.584 51.2h86.528c4.096-16.384 6.656-33.536 6.656-51.2s-2.56-34.816-6.656-51.2h-86.528z" />
<glyph unicode="&#xe0c2;" glyph-name="earth" d="M407.437 85.784c33.653 36.057 54.084 85.334 54.084 138.216 0 85.334-52.882 159.85-128.601 189.897v-10.817c0-27.643-24.038-50.479-51.68-50.479h-50.479v-51.681c0-14.422-12.019-25.239-26.441-25.239h-50.479v-51.68h153.841c14.423 0 25.24-10.817 25.24-25.24v-76.92h25.24c22.836 0 42.065-15.625 49.277-36.056zM230.761 20.882v49.277c-27.643 0-51.68 24.038-51.68 51.68v25.24l-122.591 122.591c-3.605-14.423-6.010-30.047-6.010-45.671 0-104.563 79.324-191.099 180.281-203.118zM256 480c141.822 0 256-114.178 256-256s-114.178-256-256-256-256 114.178-256 256 114.178 256 256 256z" />
<glyph unicode="&#xe0c4;" glyph-name="flag" d="M327.934 420.54h169.256v-300.43h-211.571l-11.284 59.24h-169.256v-210.16h-59.239v512h270.81z" />
<glyph unicode="&#xe0c5;" glyph-name="attachment" d="M349.141 363.439h34.859v-266.894c0-70.808-56.647-128.544-127.457-128.544s-128.544 57.736-128.544 128.544v289.771c0 51.2 44.8 93.685 96.001 93.685s96-42.485 96-93.685v-244.017c0-31.591-31.863-57.736-63.454-57.736s-64.544 26.144-64.544 57.736v221.142h34.859v-221.142c0-13.072 16.611-22.877 29.684-22.877s28.596 9.805 28.596 22.877v244.018c0 31.591-29.548 58.825-61.139 58.825s-61.141-27.234-61.141-58.825v-289.771c0-51.2 42.485-93.685 93.685-93.685s92.596 42.485 92.596 93.685v266.894z" />
<glyph unicode="&#xe0c6;" glyph-name="eye" d="M256 293.719c38.127 0 69.719-31.591 69.719-69.719s-31.591-69.719-69.719-69.719-69.719 31.591-69.719 69.719 31.591 69.719 69.719 69.719zM256 107.438c64.272 0 116.562 52.289 116.562 116.562s-52.289 116.561-116.562 116.561-116.561-52.29-116.561-116.561 52.29-116.562 116.561-116.562zM256 398.298c116.562 0 215.693-71.898 256-174.298-40.307-102.4-139.438-174.298-256-174.298s-215.694 71.898-256 174.298c40.306 102.4 139.439 174.298 256 174.298z" />
<glyph unicode="&#xe0c7;" glyph-name="eye-blocked" d="M256 340.417c64.262 0 116.416-52.155 116.416-116.417 0-15.134-3.027-29.337-8.382-42.608l67.988-67.988c35.158 29.337 62.865 67.289 79.862 110.596-40.28 102.214-139.7 174.625-256.116 174.625-32.596 0-63.797-5.821-92.668-16.299l50.292-50.292c13.272 5.355 27.475 8.382 42.609 8.382zM23.166 403.98l63.796-63.796c-38.651-30.035-68.918-70.083-87.079-116.184 40.28-102.214 139.7-174.625 256.116-174.625 36.089 0 70.549 6.985 101.981 19.558l9.779-9.779 68.22-67.988 29.57 29.57-412.813 412.813-29.57-29.57zM151.923 275.224l36.089-36.089c-1.164-4.889-1.863-10.012-1.863-15.134 0-38.651 31.2-69.85 69.85-69.85 5.122 0 10.244 0.699 15.134 1.863l36.089-36.089c-15.6-7.683-32.829-12.34-51.224-12.34-64.262 0-116.416 52.154-116.416 116.416 0 18.394 4.656 35.624 12.34 51.224zM252.274 293.385l73.342-73.342 0.466 3.726c0 38.65-31.2 69.85-69.85 69.85l-3.958-0.233z" />
<glyph unicode="&#xe0c8;" glyph-name="progress" d="M215.929 99.964l185.506 185.506-36.057 37.258-149.449-149.449-68.716 68.716-36.056-36.056zM205.4 475.1c-25.706-5.026-50.073-13.83-72.4-25.9l27.1-40.2c15.751 8.053 32.644 14.245 50.4 18.1zM93.2 422.4c-20.034-16.305-37.575-35.495-51.9-57.1l42.7-22.6c10.308 14.798 22.48 28.169 36.2 39.8zM18.7 323c-9.835-23.433-16.349-48.635-18.8-75h48.4c2.097 18.256 6.488 35.798 13 52.3zM-0.1 200c2.451-26.363 8.863-51.578 18.7-75l42.8 22.7c-6.508 16.515-10.999 34.021-13.1 52.3h-48.3zM84.1 105.4l-42.8-22.7c14.33-21.588 31.865-40.875 51.9-57.2l27 40c-13.719 11.652-25.808 25.099-36.1 39.9zM160.1 38.9l-27.1-40.1c22.338-12.106 46.68-20.871 72.4-25.9l5.1 48c-17.754 3.854-34.656 9.933-50.4 18zM256 480v-48c114.135-0.864 208-93.661 208-208 0-114.607-93.495-207.567-208-208v-48c141.016 0.433 256 114.882 256 256 0 140.85-115.353 255.137-256 256z" />
<glyph unicode="&#xe0c9;" glyph-name="bookmark" d="M370.899 480c24.699 0 45.101-26.668 45.101-57.333v-454.668l-160 117.332-160-117.332v454.668c0 30.668 20.403 57.333 45.101 57.333h229.799z" />
<glyph unicode="&#xe0ca;" glyph-name="eye-private" d="M256 398.3c-116.561 0-215.694-71.9-256-174.3 40.306-102.4 139.438-174.3 256-174.3 2.683 0 5.337 0.123 8 0.2v57.8c-2.656-0.185-5.296-0.3-8-0.3-64.271 0-116.6 52.329-116.6 116.6s52.327 116.6 116.6 116.6c44.977 0 84.066-25.59 103.5-63 0.798 0.387 1.42 0.668 1.7 0.8 0.463 0.218 0.781 0.399 1 0.5h0.1c1.825 0.833 4.098 1.827 6.7 2.8v0.1c0.572 0.218 0.299 0.064 0.4 0.1 0.586 0.2 0.679 0.252 0.3 0.1 0.12 0.044 0.277 0.056 0.4 0.1 1.238 0.446 2.459 0.951 3.9 1.4h0.1c1.678 0.523 2.94 0.769 3.8 1 1.095 0.293 1.361 0.419 0.901 0.3h0.1c1.553 0.4 3.067 0.781 4.6 1.1 0.522 0.109 1.009 0.188 1.6 0.3-0.587-0.112 0.010 0.008 1.7 0.3 1.262 0.219 2.267 0.373 3.2 0.5l4.298 0.54 9.702 0.46c49.673 2.357 91.048-36.951 98.9-84.6 3.301 6.706 6.341 13.59 9.1 20.6-40.307 102.4-139.438 174.3-256 174.3zM256 293.7c-38.128 0-69.7-31.572-69.7-69.7s31.572-69.7 69.7-69.7c3.54 0 6.993 0.276 10.4 0.8 0.002 0.010 0.098-0.010 0.1 0 5.449 18.264 19.565 32.952 37.5 39.3 0.368 4.904 0.586 9.897 1.6 14.5 0.245 1.115 0.493 2.207 0.8 3.4-0.512-1.996-0.446-1.753 0.2 0.7v0.1c0.531 2.003 0.751 2.483 0.5 1.6v0.1c0.255 0.895 0.462 1.641 0.7 2.4 0.257 0.824 0.727 2.233 1.4 4.1h-0.1c0.548 1.523 1.115 2.816 1.6 4 0.792 1.935 1.389 3.225 1.7 3.9 0.43 0.935 1.090 2.218 1.9 3.8 0.165 0.322 0.474 1.049 1.1 2.2 0.404 0.742 0.634 1.085 0.7 1.2 0.043 0.077 0.058 0.025 0.1 0.1 0.027 0.049-0.026 0.052 0 0.1l0.1 0.2c0.033 0.058 0.163 0.233 0.2 0.3 0.385 0.685 0.944 1.664 1.9 3.2 0.498 0.799 1.111 1.882 2 3.2l0.1 0.1c0.101 0.148 0.111 0.069 0.2 0.2v0.1c0.33 0.484 0.949 1.24 1.4 1.9-9.277 27.648-35.567 47.9-66.1 47.9zM404 256c-1.198 0-2.361-0.052-3.544-0.113-0.844-0.043-1.695-0.095-2.531-0.169-1.021-0.089-2.029-0.203-3.038-0.338-0.887-0.118-1.767-0.242-2.644-0.393-0.377-0.065-0.75-0.154-1.125-0.225-0.377-0.071-0.75-0.147-1.125-0.225-1.055-0.219-2.113-0.464-3.15-0.732-0.224-0.058-0.452-0.109-0.675-0.169-0.869-0.233-1.733-0.464-2.587-0.732-1.006-0.314-1.996-0.654-2.981-1.012-0.072-0.025-0.153-0.029-0.225-0.056-1.639-0.601-3.259-1.305-4.837-2.025-0.242-0.111-0.49-0.224-0.731-0.338-0.397-0.187-0.788-0.369-1.181-0.563-0.332-0.164-0.683-0.337-1.012-0.506-0.46-0.237-0.896-0.484-1.35-0.731-0.686-0.373-1.353-0.73-2.025-1.125-0.295-0.173-0.608-0.328-0.9-0.506-0.235-0.143-0.442-0.304-0.675-0.45-0.743-0.464-1.471-0.916-2.194-1.406-0.077-0.052-0.148-0.116-0.225-0.169-0.8-0.548-1.587-1.107-2.363-1.688-0.893-0.669-1.728-1.371-2.587-2.081-0.612-0.506-1.206-0.993-1.8-1.519-0.587-0.518-1.175-1.037-1.744-1.575-0.133-0.125-0.262-0.267-0.394-0.394-0.325-0.313-0.637-0.637-0.956-0.956-0.498-0.499-0.98-1.005-1.462-1.519-0.473-0.503-0.949-1.002-1.406-1.518-0.036-0.041-0.077-0.072-0.113-0.113-0.5-0.567-0.981-1.16-1.462-1.744-0.127-0.154-0.269-0.296-0.394-0.45-0.569-0.702-1.145-1.413-1.688-2.137-0.596-0.798-1.182-1.65-1.743-2.475-0.053-0.078-0.116-0.147-0.169-0.225-0.483-0.716-0.95-1.459-1.406-2.193-0.491-0.789-0.947-1.61-1.406-2.419-0.033-0.059-0.079-0.11-0.113-0.169-0.168-0.298-0.342-0.599-0.506-0.9-0.274-0.503-0.526-1.008-0.788-1.519-0.438-0.855-0.835-1.712-1.238-2.587-0.401-0.873-0.815-1.75-1.182-2.644-0.37-0.904-0.736-1.833-1.068-2.756-0.33-0.914-0.608-1.824-0.9-2.757-0.175-0.56-0.345-1.121-0.506-1.688-0.107-0.377-0.237-0.746-0.337-1.125-0.044-0.168-0.069-0.338-0.113-0.506-0.202-0.784-0.387-1.568-0.563-2.363-1.051-4.772-1.632-9.711-1.632-14.793v-21.206h-11.813c-15.086 0-27.394-12.308-27.394-27.394v-143.606c0.016-0.79 0.090-1.59 0.169-2.363 0.171-1.843 0.523-3.621 1.068-5.344 0.248-0.783 0.526-1.553 0.844-2.307 0.029-0.071 0.026-0.154 0.056-0.225 0.033-0.077 0.079-0.148 0.113-0.225 0.316-0.724 0.693-1.447 1.069-2.137 0.148-0.267 0.293-0.526 0.45-0.788 0.332-0.567 0.697-1.091 1.068-1.631 4.498-6.543 11.723-11.046 20.025-11.813 0.829-0.077 1.683-0.169 2.531-0.169 0.075 0 0.15 0 0.225 0h160.988c0.848 0.007 1.699 0.083 2.531 0.169 8.303 0.767 15.526 5.269 20.025 11.813 0.37 0.539 0.736 1.065 1.069 1.631 0.594 1.011 1.168 2.063 1.631 3.15 0.029 0.070 0.026 0.154 0.056 0.225 0.318 0.752 0.596 1.524 0.844 2.306 0.545 1.723 0.898 3.501 1.069 5.344 0.094 0.919 0.169 1.87 0.169 2.813v143.156c0 15.086-12.308 27.394-27.394 27.394h-11.813v21.206c0 37.928-30.865 68.793-68.793 68.793zM404 229.618c23.142 0 42.413-19.269 42.413-42.413v-21.206h-84.825v21.206c0 5.187 0.938 10.17 2.7 14.793 0.375 0.985 0.791 1.975 1.238 2.925 0.078 0.165 0.144 0.342 0.225 0.506 0.055 0.113 0.113 0.225 0.169 0.337 0.256 0.514 0.568 1.016 0.844 1.519 0.269 0.491 0.556 0.983 0.844 1.462 0.17 0.283 0.33 0.565 0.506 0.844 0.254 0.401 0.522 0.79 0.788 1.182 0.399 0.586 0.811 1.178 1.238 1.743 0.298 0.394 0.589 0.798 0.9 1.182 0.375 0.464 0.787 0.901 1.181 1.35 0.166 0.189 0.337 0.377 0.507 0.563 0.549 0.603 1.106 1.173 1.688 1.743 0.276 0.271 0.561 0.525 0.844 0.788 0.509 0.473 0.988 0.958 1.519 1.406 0.111 0.094 0.225 0.188 0.337 0.281 0.022 0.018 0.037 0.039 0.056 0.056 0.104 0.086 0.233 0.14 0.337 0.225 0.676 0.548 1.373 1.125 2.082 1.632 0.077 0.054 0.149 0.115 0.225 0.169 0.824 0.581 1.666 1.108 2.531 1.632 0.512 0.308 1.050 0.613 1.575 0.9 0.207 0.114 0.409 0.227 0.618 0.338 0.28 0.147 0.56 0.309 0.844 0.45 0.87 0.434 1.798 0.807 2.7 1.181 0.988 0.409 1.959 0.791 2.981 1.125 0.988 0.323 2.021 0.649 3.038 0.9 0.036 0.007 0.077-0.007 0.113 0 0.263 0.064 0.522 0.11 0.788 0.169 0.228 0.051 0.446 0.122 0.675 0.169 0.63 0.128 1.274 0.238 1.913 0.338 0.697 0.109 1.43 0.208 2.137 0.281 0.594 0.061 1.2 0.077 1.8 0.113 0.827 0.050 1.637 0.113 2.475 0.113zM404 94c14.442 0 27-12.558 27-27s-12.558-27-27-27c-14.442 0-27 12.558-27 27s12.558 27 27 27z" />
<glyph unicode="&#xe0cb;" glyph-name="brightness-medium" d="M256 64c17.673 0 32-14.327 32-32v-32c0-17.673-14.327-32-32-32s-32 14.327-32 32v32c0 17.673 14.327 32 32 32zM256 384c-17.673 0-32 14.327-32 32v32c0 17.673 14.327 32 32 32s32-14.327 32-32v-32c0-17.673-14.327-32-32-32zM480 256c17.673 0 32-14.327 32-32s-14.327-32-32-32h-32c-17.674 0-32 14.327-32 32s14.326 32 32 32h32zM96 224c0-17.673-14.327-32-32-32h-32c-17.673 0-32 14.327-32 32s14.327 32 32 32h32c17.673 0 32-14.327 32-32zM414.392 110.863l22.628-22.629c12.496-12.495 12.496-32.758 0-45.254-12.497-12.496-32.759-12.496-45.255 0l-22.628 22.628c-12.496 12.495-12.496 32.758 0 45.255 12.497 12.496 32.759 12.496 45.255 0zM97.608 337.137l-22.628 22.628c-12.497 12.497-12.497 32.758 0 45.255s32.758 12.497 45.255 0l22.628-22.628c12.497-12.497 12.497-32.758 0-45.255s-32.758-12.497-45.255 0zM414.392 337.137c-12.496-12.496-32.758-12.496-45.255 0-12.496 12.497-12.496 32.758 0 45.255l22.628 22.627c12.496 12.497 32.758 12.497 45.255 0 12.496-12.497 12.496-32.758 0-45.255l-22.628-22.627zM97.608 110.863c12.496 12.496 32.759 12.496 45.254 0 12.497-12.497 12.497-32.76 0-45.255l-22.627-22.628c-12.497-12.496-32.758-12.496-45.255 0s-12.497 32.759 0 45.254l22.628 22.629zM256 352c-70.692 0-128-57.308-128-128s57.308-128 128-128c70.691 0 128 57.309 128 128s-57.308 128-128 128zM256 144c-44.183 0-80 35.817-80 80s35.817 80 80 80 80-35.817 80-80-35.817-80-80-80z" />
<glyph unicode="&#xe0cc;" glyph-name="brightness-contrast" d="M256 352c-70.692 0-128-57.308-128-128s57.308-128 128-128 128 57.308 128 128-57.308 128-128 128zM256 144v160c44.112 0 80-35.888 80-80s-35.888-80-80-80zM256 64c17.673 0 32-14.327 32-32v-32c0-17.673-14.327-32-32-32s-32 14.327-32 32v32c0 17.673 14.327 32 32 32zM256 384c-17.673 0-32 14.327-32 32v32c0 17.673 14.327 32 32 32s32-14.327 32-32v-32c0-17.673-14.327-32-32-32zM480 256c17.673 0 32-14.327 32-32s-14.327-32-32-32h-32c-17.673 0-32 14.327-32 32s14.327 32 32 32h32zM96 224c0-17.673-14.327-32-32-32h-32c-17.673 0-32 14.327-32 32s14.327 32 32 32h32c17.673 0 32-14.327 32-32zM414.392 110.863l22.628-22.628c12.496-12.496 12.496-32.758 0-45.255-12.497-12.496-32.759-12.496-45.255 0l-22.628 22.628c-12.496 12.496-12.496 32.758 0 45.255 12.497 12.496 32.759 12.496 45.255 0zM97.608 337.137l-22.628 22.628c-12.497 12.497-12.497 32.758 0 45.255s32.758 12.497 45.255 0l22.628-22.628c12.497-12.497 12.497-32.758 0-45.255s-32.758-12.497-45.255 0zM414.392 337.137c-12.496-12.496-32.758-12.496-45.255 0-12.496 12.497-12.496 32.758 0 45.255l22.628 22.627c12.496 12.497 32.758 12.497 45.255 0 12.496-12.497 12.496-32.758 0-45.255l-22.628-22.627zM97.608 110.863c12.496 12.496 32.758 12.496 45.254 0 12.497-12.497 12.497-32.759 0-45.255l-22.627-22.628c-12.497-12.496-32.758-12.496-45.255 0-12.497 12.497-12.497 32.759 0 45.255l22.628 22.628z" />
<glyph unicode="&#xe0cd;" glyph-name="contrast" d="M256 480c-141.312 0-256-114.688-256-256s114.688-256 256-256c141.312 0 256 114.688 256 256s-114.688 256-256 256zM230.4 20.992c-100.864 12.544-179.2 98.56-179.2 203.008s78.079 190.464 179.2 203.008v-406.015z" />
<glyph unicode="&#xe0ce;" glyph-name="star-empty" d="M256 136.263l96.15-57.691-25.239 109.37 85.334 74.517-112.977 9.614-43.269 103.361-43.269-103.361-112.977-9.614 85.333-74.517-25.239-109.37zM512 294.911l-139.418-121.389 42.066-180.281-158.648 96.15-158.648-96.15 42.066 180.281-139.418 121.389 183.888 15.625 72.112 169.464 72.113-169.464z" />
<glyph unicode="&#xe0cf;" glyph-name="star-half" d="M256 136.263l96.15-57.691-25.239 109.37 85.334 74.517-112.977 9.614-43.269 103.361v-239.173zM512 294.911l-139.418-121.389 42.066-180.281-158.648 96.15-158.648-96.15 42.066 180.281-139.418 121.389 183.888 15.625 72.112 169.464 72.113-169.464z" />
<glyph unicode="&#xe0d0;" glyph-name="star" d="M256 89.391l-158.647-96.15 42.066 180.28-139.418 121.389 183.887 15.625 72.112 169.464 72.113-169.464 183.887-15.625-139.418-121.389 42.066-180.28z" />
<glyph unicode="&#xe0d1;" glyph-name="heart" d="M256-15.173l-37.258 33.653c-132.207 120.188-218.742 198.31-218.742 295.662 0 79.324 61.296 140.619 140.619 140.619 44.47 0 87.737-21.634 115.381-54.084 27.643 32.45 70.911 54.084 115.38 54.084 79.324 0 140.62-61.296 140.62-140.619 0-97.352-86.535-176.676-218.742-296.864z" />
<glyph unicode="&#xe0d2;" glyph-name="heart-empty" d="M258.404 55.737c122.591 110.573 203.118 183.887 203.118 258.404 0 51.68-38.46 88.939-90.141 88.939-39.662 0-78.122-25.239-91.342-60.094h-48.075c-13.22 34.855-51.68 60.094-91.343 60.094-51.68 0-90.141-37.258-90.141-88.939 0-74.517 80.526-147.831 203.118-258.404l2.404-2.404zM371.38 454.761c79.324 0 140.62-61.296 140.62-140.619 0-97.352-86.535-175.474-218.742-295.662l-37.258-33.653-37.258 32.45c-132.207 120.188-218.742 199.512-218.742 296.864 0 79.324 61.296 140.619 140.619 140.619 44.47 0 87.737-21.634 115.381-54.084 27.643 32.45 70.911 54.084 115.38 54.084z" />
<glyph unicode="&#xe0d3;" glyph-name="bookmark-empty" d="M141.1 480c-24.698 0-45.1-26.632-45.1-57.3v-454.7l160 117.3 160-117.3v454.7c0 30.665-20.401 57.3-45.1 57.3h-229.8zM175.6 432h160.8c17.289 0 31.6-14.968 31.6-39.5v-334.9l-112 87.5-112-87.5v334.9c0 24.534 12.428 39.5 31.6 39.5z" />
<glyph unicode="&#xe0d4;" glyph-name="thumbs-up" d="M32 32.003h81.454v244.364h-81.454v-244.364zM480 256.002c0 22.4-18.327 40.727-40.728 40.727h-128.498l19.346 93.063 0.611 6.516c0 8.35-3.462 16.088-8.96 21.587l-21.586 21.382-133.996-134.196c-7.535-7.331-12.014-17.512-12.014-28.713v-203.639c0-22.4 18.328-40.726 40.727-40.726h183.272c16.901 0 31.36 10.181 37.469 24.843l61.498 143.564c1.833 4.683 2.851 9.571 2.851 14.866v38.894l-0.204 0.205 0.204 1.629z" />
<glyph unicode="&#xe0d5;" glyph-name="thumbs-down" d="M480 415.997h-81.454v-244.364h81.454v244.364zM32 191.998c0-22.4 18.327-40.727 40.728-40.727h128.498l-19.346-93.063-0.611-6.516c0-8.35 3.462-16.088 8.96-21.587l21.586-21.382 133.996 134.196c7.535 7.331 12.014 17.512 12.014 28.713v203.639c0 22.4-18.328 40.726-40.727 40.726h-183.272c-16.901 0-31.36-10.181-37.469-24.843l-61.498-143.564c-1.833-4.683-2.851-9.571-2.851-14.866v-38.894l0.204-0.205-0.204-1.629z" />
<glyph unicode="&#xe0d6;" glyph-name="face-thanks" d="M256-32c141.385 0 256 114.615 256 256s-114.615 256-256 256-256-114.615-256-256 114.615-256 256-256zM256 432c114.875 0 208-93.125 208-208s-93.125-208-208-208-208 93.125-208 208 93.125 208 208 208zM256 180.62c57.975 0 113.115 15.403 160 42.46-7.287-89.219-76.564-159.080-160-159.080-83.434 0-152.711 69.936-160 159.152 46.885-27.056 102.025-42.532 160-42.532zM128 304c0 26.51 14.327 48 32 48s32-21.49 32-48c0-26.51-14.327-48-32-48s-32 21.49-32 48zM320 304c0 26.51 14.327 48 32 48s32-21.49 32-48c0-26.51-14.327-48-32-48s-32 21.49-32 48z" />
<glyph unicode="&#xe0d8;" glyph-name="face-please" d="M256-32c141.385 0 256 114.615 256 256s-114.615 256-256 256-256-114.615-256-256 114.615-256 256-256zM256 432c114.875 0 208-93.125 208-208s-93.125-208-208-208-208 93.125-208 208 93.125 208 208 208zM128 320c0 17.673 14.327 32 32 32s32-14.327 32-32c0-17.673-14.327-32-32-32s-32 14.327-32 32zM320 320c0 17.673 14.327 32 32 32s32-14.327 32-32c0-17.673-14.327-32-32-32s-32 14.327-32 32zM352.049 166.37l41.164-24.698c-27.981-46.535-78.958-77.672-137.213-77.672s-109.232 31.137-137.213 77.672l41.164 24.698c19.587-32.574 55.271-54.37 96.049-54.37s76.462 21.796 96.049 54.37z" />
<glyph unicode="&#xe0dc;" glyph-name="face-sorry" d="M256-32c141.385 0 256 114.615 256 256s-114.615 256-256 256-256-114.615-256-256 114.615-256 256-256zM256 432c114.875 0 208-93.125 208-208s-93.125-208-208-208-208 93.125-208 208 93.125 208 208 208zM128 320c0 17.673 14.327 32 32 32s32-14.327 32-32c0-17.673-14.327-32-32-32s-32 14.327-32 32zM320 320c0 17.673 14.327 32 32 32s32-14.327 32-32c0-17.673-14.327-32-32-32s-32 14.327-32 32zM159.951 89.63l-41.164 24.698c27.981 46.535 78.958 77.672 137.213 77.672s109.231-31.137 137.213-77.672l-41.164-24.698c-19.587 32.574-55.271 54.37-96.049 54.37-40.779 0-76.462-21.796-96.049-54.37z" />
<glyph unicode="&#xe0de;" glyph-name="face-ok" d="M256-32c141.385 0 256 114.615 256 256s-114.615 256-256 256-256-114.615-256-256 114.615-256 256-256zM256 432c114.875 0 208-93.125 208-208s-93.125-208-208-208-208 93.125-208 208 93.125 208 208 208zM271.37 124.486c70.124 13.853 124.555 45.771 144.227 88.297-10.827-83.978-80.759-148.783-165.425-148.783-59.621 0-111.929 32.141-141.446 80.474 35.205-27.529 97.267-32.904 162.644-19.988zM320 304c0 26.51 14.327 48 32 48s32-21.49 32-48c0-26.51-14.327-48-32-48s-32 21.49-32 48zM176 294.25c-20.898 0-38.667-7.828-45.258-18.75-1.77 2.933-2.742 16.087-2.742 19.375 0 15.533 21.49 28.125 48 28.125s48-12.592 48-28.125c0-3.288-0.972-16.442-2.742-19.375-6.591 10.922-24.36 18.75-45.258 18.75z" />
<glyph unicode="&#xe0e4;" glyph-name="face-angry" d="M256-32c141.385 0 256 114.615 256 256s-114.615 256-256 256-256-114.615-256-256 114.615-256 256-256zM256 432c114.875 0 208-93.125 208-208s-93.125-208-208-208-208 93.125-208 208 93.125 208 208 208zM352.049 89.63c-19.587 32.574-55.272 54.37-96.049 54.37s-76.462-21.796-96.049-54.37l-41.164 24.698c27.98 46.535 78.958 77.672 137.213 77.672s109.232-31.137 137.213-77.672l-41.164-24.698zM383.521 339.88c2.142-8.572-3.070-17.259-11.641-19.402-8.813-2.225-19.261-6.060-28.468-10.675 5.324-5.715 8.587-13.376 8.587-21.803 0-17.673-14.327-32-32-32s-32 14.327-32 32c0 0.585 0.018 1.165 0.049 1.742 1.016 23.727 22.606 39.473 40.796 48.569 17.371 8.685 34.551 13.030 35.274 13.211 8.573 2.144 17.259-3.069 19.403-11.642zM128.479 339.88c2.144 8.573 10.83 13.786 19.403 11.642 0.723-0.181 17.903-4.526 35.274-13.211 18.19-9.096 39.78-24.842 40.796-48.569 0.031-0.577 0.049-1.157 0.049-1.742 0-17.673-14.327-32-32-32s-32 14.327-32 32c0 8.427 3.263 16.088 8.587 21.803-9.207 4.615-19.655 8.45-28.468 10.675-8.571 2.143-13.783 10.83-11.641 19.402z" />
<glyph unicode="&#xe0ea;" glyph-name="face-down" d="M256-32c141.385 0 256 114.615 256 256s-114.615 256-256 256-256-114.615-256-256 114.615-256 256-256zM256 432c114.875 0 208-93.125 208-208s-93.125-208-208-208-208 93.125-208 208 93.125 208 208 208zM128 320c0 17.673 14.327 32 32 32s32-14.327 32-32c0-17.673-14.327-32-32-32s-32 14.327-32 32zM320 320c0 17.673 14.327 32 32 32s32-14.327 32-32c0-17.673-14.327-32-32-32s-32 14.327-32 32zM363.053 160h32.432c4.623-36.253-16.226-72.265-51.979-85.28-41.452-15.088-87.45 6.358-102.54 47.808-9.054 24.872-36.653 37.741-61.524 28.686-22.781-8.294-35.478-32.149-30.494-55.212h-32.43c-4.621 36.254 16.225 72.264 51.978 85.28 41.452 15.089 87.451-6.358 102.541-47.807 9.052-24.874 36.653-37.741 61.522-28.686 22.781 8.292 35.478 32.149 30.494 55.211z" />
<glyph unicode="&#xe0f9;" glyph-name="blocked" d="M418.253 97.803c27.643 34.855 43.267 79.324 43.267 126.197 0 112.976-92.544 205.521-205.521 205.521-46.873 0-91.343-15.624-126.197-43.267zM256 18.479c46.873 0 91.342 15.625 126.197 43.267l-288.45 288.45c-27.643-34.855-43.267-79.324-43.267-126.197 0-112.976 92.544-205.521 205.521-205.521zM256 480c141.822 0 256-114.178 256-256s-114.178-256-256-256-256 114.178-256 256 114.178 256 256 256z" />
<glyph unicode="&#xe0fb;" glyph-name="checkmark-circle" d="M204.32 95.399l230.761 230.761-36.057 37.258-194.704-194.704-91.343 91.343-36.056-36.056zM256 480c141.822 0 256-114.178 256-256s-114.178-256-256-256-256 114.178-256 256 114.178 256 256 256z" />
<glyph unicode="&#xe100;" glyph-name="spell-check" d="M464.375 233.804l32.681-32.681-221.141-221.141-117.651 118.741 32.681 32.681 84.971-86.060zM111.421 246.876h95.865l-47.932 128.545zM251.949 131.404l-27.234 69.719h-130.724l-26.145-69.719h-49.022l118.741 301.754h43.575l118.741-301.754h-47.932z" />
<glyph unicode="&#xe10a;" glyph-name="play" d="M160 384l256-160-256-160v320z" />
<glyph unicode="&#xe10b;" glyph-name="pause" d="M288 384h96v-320h-96zM128 64v320h96v-320z" />
<glyph unicode="&#xe10c;" glyph-name="stop" d="M96 384h320v-320h-320z" />
<glyph unicode="&#xe10d;" glyph-name="backward" d="M240 224l208 144v-288zM224 80l-208 144 208 144v-288z" />
<glyph unicode="&#xe10e;" glyph-name="forward" d="M272 224l-208-144v288zM288 368l208-144-208-144v288z" />
<glyph unicode="&#xe10f;" glyph-name="first" d="M272 224l208 144v-288zM256 80l-208 144 208 144v-288zM0 368h32v-288h-32z" />
<glyph unicode="&#xe110;" glyph-name="last" d="M240 224l-208-144v288zM256 368l208-144-208-144v288zM512 80h-32v288h32z" />
<glyph unicode="&#xe111;" glyph-name="previous" d="M384 80l-208 144 208 144v-288zM128 368h32v-288h-32z" />
<glyph unicode="&#xe112;" glyph-name="next" d="M128 368l208-144-208-144v288zM384 80h-32v288h32z" />
<glyph unicode="&#xe114;" glyph-name="volume-high" d="M308 480v-48.6c11.292-2.603 22.308-5.976 32.8-10.3 11.071-4.562 21.589-10.009 31.6-16.3s19.423-13.371 28.2-21.2c8.776-7.83 16.931-16.424 24.3-25.6s14.012-18.968 19.8-29.3c5.788-10.332 10.768-21.203 14.8-32.5s7.097-23.030 9.2-35.1c1.051-6.035 1.863-12.108 2.4-18.3s0.8-12.474 0.8-18.8c0-6.326-0.264-12.608-0.8-18.8s-1.349-12.265-2.4-18.3c-2.103-12.070-5.168-23.803-9.2-35.1s-9.012-22.168-14.8-32.5c-5.788-10.332-12.431-20.123-19.8-29.3s-15.524-17.771-24.3-25.6c-8.776-7.829-18.19-14.909-28.2-21.2s-20.529-11.738-31.6-16.3c-10.492-4.324-21.508-7.697-32.8-10.3v-48.6c117.732 26.010 204 131.423 204 256s-86.267 229.99-204 256zM256 423.5l-124.8-124.8h-99.2v-149.4h99.2l124.8-124.8v399zM308 384v-49c40.63-21.135 67.2-62.249 67.2-111s-26.57-89.864-67.2-111v-49c8.031 2.436 15.764 5.343 23.2 8.9 8.019 3.836 15.785 8.279 23 13.3s14.002 10.617 20.3 16.7c6.298 6.083 12.034 12.678 17.3 19.7s9.979 14.462 14.1 22.3c4.121 7.839 7.639 16.168 10.5 24.7s5.012 17.298 6.5 26.4c1.488 9.103 2.4 18.45 2.4 28s-0.912 18.898-2.4 28c-1.488 9.103-3.639 17.868-6.5 26.4s-6.379 16.861-10.5 24.7c-4.121 7.839-8.834 15.278-14.1 22.3s-11.002 13.617-17.3 19.7c-6.298 6.083-13.085 11.679-20.3 16.7s-14.981 9.464-23 13.3c-7.435 3.557-15.168 6.464-23.2 8.9zM308 272v-96c17.861 8.93 29.6 26.791 29.6 48s-11.74 39.070-29.6 48z" />
<glyph unicode="&#xe115;" glyph-name="volume-medium" d="M306.358 443c100.717-22.251 174.497-112.428 174.497-219s-73.781-196.749-174.497-219v51.529c72.61 21.080 124.139 87.834 124.139 167.471s-51.529 146.39-124.139 167.471v51.529zM368.428 224c0-44.503-24.594-81.979-62.070-100.717v201.433c37.476-18.738 62.070-56.214 62.070-100.717zM31.144 298.952h99.545l125.31 125.31v-400.524l-125.31 125.31h-99.545v149.904z" />
<glyph unicode="&#xe116;" glyph-name="volume-low" d="M79.117 299.977h100.906l127.023 127.023v-406l-127.023 127.023h-100.906v151.953zM421.012 224c0-45.111-26.117-83.099-64.105-102.094v204.187c37.988-18.994 64.105-56.982 64.105-102.094z" />
<glyph unicode="&#xe117;" glyph-name="volume-none" d="M128.977 299.977h102.094l125.836 127.023v-406l-125.836 127.023h-102.094v151.953z" />
<glyph unicode="&#xe118;" glyph-name="volume-mute" d="M256 423.5v-105l-52.5 52.5zM63.5 448l416.5-416.5-31.5-31.5-51.333 51.333c-26.833-21-57.167-37.333-91-45.5v51.333c21 5.833 39.667 16.333 56 29.167l-106.167 106.167v-168l-124.833 124.833h-99.167v149.333h117.833l-117.833 117.833zM429.833 224c0 79.333-51.333 145.833-123.667 166.833v51.333c100.333-22.167 173.833-112 173.833-218.167 0-37.333-9.333-73.5-25.667-103.833l-37.333 38.5c8.167 19.833 12.833 42 12.833 65.333zM368 224c0-5.833 0-10.5-1.167-15.167l-60.667 60.667v54.833c37.333-18.667 61.833-56 61.833-100.333z" />
<glyph unicode="&#xe119;" glyph-name="volume-increase" d="M28 300v-152h101.334l126.666-126.666v405.334l-126.666-126.666zM484.002 198.865h-76.299v-76.199h-50.267v76.199h-76.101v50.267h76.101v76.199h50.267v-76.199h76.299z" />
<glyph unicode="&#xe11a;" glyph-name="volume-decrease" d="M28 300v-152h101.334l126.666-126.666v405.334l-126.666-126.666zM484.002 198.865h-177.334v50.267h177.334z" />
<glyph unicode="&#xe11b;" glyph-name="loop" d="M384.601 95.399v103.361h50.479v-153.841h-307.68v-76.92l-102.159 102.159 102.159 102.159v-76.92h257.202zM127.399 352.601v-103.362h-50.479v153.84h307.68v76.92l102.159-102.159-102.159-102.16v76.92h-257.202z" />
<glyph unicode="&#xe11c;" glyph-name="refresh" d="M444.84 396.84c-46.804 51.108-114.077 83.16-188.84 83.16-141.385 0-256-114.615-256-256h48c0 114.875 93.125 208 208 208 61.51 0 116.771-26.709 154.848-69.153l-74.848-74.847h176v176l-67.16-67.16zM464 224c0-114.875-93.125-208-208-208-61.51 0-116.771 26.709-154.847 69.153l74.847 74.847h-176v-176l67.16 67.16c46.804-51.108 114.077-83.16 188.84-83.16 141.385 0 256 114.615 256 256h-48z" />
<glyph unicode="&#xe11e;" glyph-name="shuffle" d="M416 448v-76.9h-34.3l-0.1 0.1h-57.6l-253.6-243.2h-70.4v-48h94l250.2 240.6h71.8v-76.9l96 102.1zM17.8 371.2l0.1-0.1h-17.9v-50.5h70.4l71-68.2 36.4 35-87.2 83.8zM416 204.3v-76.3h-71.8l-70.8 67.6-36.5-35.1 83.8-80.5h95.3v-80l96 102.2z" />
<glyph unicode="&#xe127;" glyph-name="arrow-up-left" d="M383.814 415.997l-319.814 0.003v-319.805l63.958-0.070v210.689l274.812-274.813 45.23 45.23-274.812 274.813 210.698-0.003z" />
<glyph unicode="&#xe128;" glyph-name="arrow-up" d="M479.998 224l-223.998 224-223.999-224 45.202-45.3 146.799 146.8v-325.5h64v325.5l146.798-146.8z" />
<glyph unicode="&#xe129;" glyph-name="arrow-up-right" d="M447.997 96.186l0.003 319.814h-319.805l-0.070-63.958h210.689l-274.813-274.812 45.23-45.23 274.813 274.812-0.003-210.698z" />
<glyph unicode="&#xe12a;" glyph-name="arrow-right" d="M256 0.002l224 223.998-224 223.999-45.3-45.202 146.8-146.799h-325.5v-64h325.5l-146.8-146.798z" />
<glyph unicode="&#xe12b;" glyph-name="arrow-down-right" d="M128.186 32.003l319.814-0.003v319.805l-63.958 0.070v-210.689l-274.812 274.813-45.23-45.23 274.812-274.813-210.698 0.003z" />
<glyph unicode="&#xe12c;" glyph-name="arrow-down" d="M479.998 224l-223.998-224-223.999 224 45.202 45.3 146.799-146.8v325.5h64v-325.5l146.798 146.8z" />
<glyph unicode="&#xe12d;" glyph-name="arrow-down-left" d="M64.003 351.814l-0.003-319.814h319.805l0.070 63.958h-210.689l274.813 274.812-45.23 45.23-274.813-274.812 0.003 210.698z" />
<glyph unicode="&#xe12e;" glyph-name="arrow-left" d="M256 447.998l-224-223.998 224-223.999 45.3 45.202-146.8 146.799h325.5v64h-325.5l146.8 146.798z" />
<glyph unicode="&#xe13b;" glyph-name="radio-checked" d="M256 448c-123.522 0-224-100.478-224-224s100.478-224 224-224c123.522 0 224 100.478 224 224s-100.478 224-224 224zM256 416c106.228 0 192-85.772 192-192s-85.772-192-192-192c-106.228 0-192 85.772-192 192s85.772 192 192 192zM256 352c-70.584 0-128-57.416-128-128s57.416-128 128-128c70.584 0 128 57.416 128 128s-57.416 128-128 128z" />
<glyph unicode="&#xe13c;" glyph-name="radio-unchecked" d="M256 448c-123.522 0-224-100.478-224-224s100.478-224 224-224c123.522 0 224 100.478 224 224s-100.478 224-224 224zM256 416c106.228 0 192-85.772 192-192s-85.772-192-192-192c-106.228 0-192 85.772-192 192s85.772 192 192 192z" />
<glyph unicode="&#xe13d;" glyph-name="crop" d="M139.438 107.438h372.562v-45.752h-93.685v-93.686h-45.753v93.686h-233.124c-25.055 0-45.753 20.697-45.753 45.752v233.124h-93.685v45.753h93.685v93.686h45.753v-372.562zM372.561 154.281v186.281h-186.281v45.752h186.281c25.055 0 45.753-20.697 45.753-45.752v-186.281h-45.753z" />
<glyph unicode="&#xe13e;" glyph-name="cut" d="M435.080 454.761h76.92v-25.239l-179.080-180.281-51.68 51.68zM256 210.779c7.212 0 13.221 6.010 13.221 13.221s-6.010 13.22-13.221 13.22-13.22-6.010-13.22-13.22 6.010-13.221 13.22-13.221zM102.159 18.479c27.643 0 51.681 22.836 51.681 51.68s-24.037 51.68-51.68 51.68-51.681-22.836-51.681-51.68 24.038-51.68 51.681-51.68zM102.159 326.16c27.643 0 51.681 22.835 51.681 51.68s-24.037 51.681-51.68 51.681-51.681-22.836-51.681-51.681 24.038-51.68 51.681-51.68zM195.906 335.774l316.094-317.296v-25.24h-76.92l-179.080 179.080-60.094-60.094c6.010-13.221 8.413-26.442 8.413-42.065 0-56.488-45.672-102.159-102.159-102.159s-102.159 45.671-102.159 102.159 45.672 102.159 102.159 102.159c15.624 0 28.845-2.404 42.066-8.413l60.094 60.094-60.094 60.094c-13.22-6.010-26.442-8.413-42.066-8.413-56.489 0-102.159 45.672-102.159 102.159s45.672 102.159 102.159 102.159 102.159-45.672 102.159-102.159c0-15.624-2.404-28.845-8.413-42.066z" />
<glyph unicode="&#xe140;" glyph-name="filter" d="M0 416l192-192v-192l128 32v160l192 192z" />
<glyph unicode="&#xe149;" glyph-name="pivot-value" d="M447.625 480v-95.813h-223.065l158.69-160.187-158.69-160.187h223.065v-95.813h-383.252v64.375l208.094 191.625-208.094 191.625v64.374h383.252z" />
<glyph unicode="&#xe14b;" glyph-name="table" d="M0 448v-448h512v448h-512zM192 160v96h128v-96h-128zM320 128v-96h-128v96h128zM320 384v-96h-128v96h128zM160 384v-96h-128v96h128zM32 256h128v-96h-128v96zM352 256h128v-96h-128v96zM352 288v96h128v-96h-128zM32 128h128v-96h-128v96zM352 32v96h128v-96h-128z" />
<glyph unicode="&#xe14c;" glyph-name="insert-template" d="M192 384h64v-32h-64zM288 384h64v-32h-64zM448 384v-128h-96v32h64v64h-32v32zM160 288h64v-32h-64zM256 288h64v-32h-64zM96 352v-64h32v-32h-64v128h96v-32zM192 192h64v-32h-64zM288 192h64v-32h-64zM448 192v-128h-96v32h64v64h-32v32zM160 96h64v-32h-64zM256 96h64v-32h-64zM96 160v-64h32v-32h-64v128h96v-32zM480 448h-448v-448h448v448zM512 480v0-512h-512v512h512z" />
<glyph unicode="&#xe154;" glyph-name="paragraph-left" d="M32 96h448v-32h-448zM32 160h320v-32h-320zM32 224h448v-32h-448zM32 288h320v-32h-320zM32 352h448v-32h-448z" />
<glyph unicode="&#xe155;" glyph-name="paragraph-center" d="M32 96h448v-32h-448zM96 160h320v-32h-320zM32 224h448v-32h-448zM96 288h320v-32h-320zM32 352h448v-32h-448z" />
<glyph unicode="&#xe156;" glyph-name="paragraph-right" d="M32 96h448v-32h-448zM160 160h320v-32h-320zM32 224h448v-32h-448zM160 288h320v-32h-320zM32 352h448v-32h-448z" />
<glyph unicode="&#xe157;" glyph-name="paragraph-justify" d="M32 96h448v-32h-448zM32 160h448v-32h-448zM32 224h448v-32h-448zM32 288h448v-32h-448zM32 352h448v-32h-448z" />
<glyph unicode="&#xe158;" glyph-name="indent-increase" d="M0 448h512v-64h-512zM192 352h320v-64h-320zM192 256h320v-64h-320zM192 160h320v-64h-320zM0 64h512v-64h-512zM0 128v192l128-96z" />
<glyph unicode="&#xe159;" glyph-name="indent-decrease" d="M0 448h512v-64h-512zM192 352h320v-64h-320zM192 256h320v-64h-320zM192 160h320v-64h-320zM0 64h512v-64h-512zM128 320v-192l-128 96z" />
<glyph unicode="&#xe15a;" glyph-name="new-tab" d="M319.999 448h160.001v-160h-37.334v89.767l-256.666-258.767-35 35 258.769 256.666h-89.768zM442.666 37.334v154.666h37.334v-141.833c0-26.834-23.334-50.166-50.166-50.166h-347.666c-28 0-50.166 23.334-50.166 50.166v347.666c0 26.834 22.166 50.166 50.166 50.166h141.832l0.002-37.333h-154.667l-0.001-373.333z" />
<glyph unicode="&#xe15d;" glyph-name="console" d="M0 448v-448h512v448h-512zM480 32h-448v384h448v-384zM448 384h-384v-320h384v320zM224 224h-32v-32h-32v-32h-32v32h32v32h32v32h-32v32h-32v32h32v-32h32v-32h32v-32zM352 160h-96v32h96v-32z" />
<glyph unicode="&#xe15e;" glyph-name="collaboration" d="M432 128c-22.58 0-42.96-9.369-57.506-24.415l-215.502 107.751c0.657 4.126 1.008 8.353 1.008 12.664s-0.351 8.538-1.008 12.663l215.502 107.751c14.546-15.045 34.926-24.414 57.506-24.414 44.183 0 80 35.817 80 80s-35.817 80-80 80-80-35.817-80-80c0-4.311 0.352-8.538 1.008-12.663l-215.502-107.752c-14.546 15.045-34.926 24.415-57.506 24.415-44.183 0-80-35.818-80-80 0-44.184 35.817-80 80-80 22.58 0 42.96 9.369 57.506 24.414l215.502-107.751c-0.656-4.125-1.008-8.352-1.008-12.663 0-44.184 35.817-80 80-80s80 35.816 80 80c0 44.182-35.817 80-80 80z" />
<glyph unicode="&#xe170;" glyph-name="rss" d="M91.629 119.469c-32.898 0-59.629-26.834-59.629-59.533 0-32.88 26.731-59.413 59.629-59.413 33.016 0 59.716 26.534 59.716 59.413-0.001 32.7-26.698 59.533-59.716 59.533zM32.067 295.78v-85.862c55.905 0 108.482-21.863 148.076-61.474 39.543-39.514 61.373-92.328 61.373-148.444h86.241c-0.001 163.108-132.686 295.781-295.69 295.781zM32.169 448v-85.906c199.405 0 361.706-162.459 361.706-362.094h86.125c0 246.956-200.923 448-447.83 448z" />
<glyph unicode="&#xe1b2;" glyph-name="file-pdf" d="M81.778 448c-27.377 0-49.778-22.4-49.778-49.778v-348.445c0-27.377 22.4-49.778 49.778-49.778h348.444c27.377 0 49.778 22.4 49.778 49.778v348.445c0 27.377-22.4 49.778-49.778 49.778h-348.445zM96 288h64c20.657 0 32-11.341 32-32v-32c0-20.657-11.743-36.402-32-32.351h-32v-63.649h-32zM224 288.001h64c20.658 0 32-11.343 32-32.001v-90.665c0-20.658-11.342-37.333-32-37.333h-64zM352 288h64v-32h-32v-32h32v-32h-32v-64h-32zM128 256v-32h32v32zM256 256v-90.665h32v90.665z" />
<glyph unicode="&#xe1b5;" glyph-name="file-excel" d="M81.8 448c-27.377 0-49.8-22.422-49.8-49.8v-348.4c0-27.377 22.422-49.8 49.8-49.8h348.4c27.377 0 49.8 22.422 49.8 49.8v348.4c0 27.377-22.422 49.8-49.8 49.8h-348.4zM138.6 352h68.7l48.7-70.5 48.7 70.5h68.7l-82.4-121.2 93-134.8h-71.4l-56.6 83.3-25.5-37.5h25.5v-45.8h-128l93 134.8-82.4 121.2z" />
<glyph unicode="&#xe1b6;" glyph-name="file-zip" d="M115.7 480c-27.643 0-51.7-22.857-51.7-50.5v-411c0-27.643 24.057-50.5 51.7-50.5h280.6c27.642 0 51.7 22.857 51.7 50.5v307.7l-153.8 153.8h-178.5zM160 448h64v-64h64v-64h-64v-64h64v-64h-64v-32h40c13.2 0 24-10.8 24-24v-80c0-13.2-10.8-24-24-24h-80c-13.2 0-24 10.8-24 24v136h64v64h-64v64h64v64h-64v64zM192 128v-64h64v64h-64z" />
<glyph unicode="&#xe1b7;" glyph-name="file-html" d="M115.7 480c-27.643 0-51.7-22.857-51.7-50.5v-411c0-27.643 24.057-50.5 51.7-50.5h280.6c27.642 0 51.7 22.857 51.7 50.5v307.7l-153.8 153.8h-178.5zM256 441.5l153.5-153.5h-153.5v153.5zM312.7 257.5l21.6-12.2-128.6-221.2-21.6 12.2 128.6 221.2zM348.9 210.1l67.1-68.7-0.7-0.7 0.7-0.7-67.1-68.5-21.9 21.9 46.3 47.3-46.3 47.4 21.9 22zM163.1 210l21.9-21.9-46.3-47.3 46.3-47.3-21.9-22-67.1 68.6 0.7 0.7-0.7 0.7 67.1 68.5z" />
<glyph unicode="&#xe600;" glyph-name="magic" d="M192 186.667c0 0 101.971 61.18 159.383 37.013 11.901 18.134 23.624 37.668 35.101 57.611-56.163 13.76-130.484 1.376-130.484 1.376s95.106 57.061 153.333 39.2c11.675 21.054 23.027 41.821 33.978 61.152-46.387 3.134-91.311-4.352-91.311-4.352s59.574 35.744 113.289 41.799c16.899 27.43 32.585 48.94 46.711 59.534-280.5 0-448-320-512-512h32l96 160c0 0 32-32 128 0 22.737 7.579 45.474 28.626 67.786 56.967-56.308 14.277-131.786 1.7-131.786 1.7z" />
<glyph unicode="&#xe601;" glyph-name="clipboard" d="M256 480c-35.36 0-64-28.64-64-64h-96c-4.4 0-8.575-0.875-12.4-2.5s-7.3-4-10.2-6.9c-2.9-2.9-5.275-6.375-6.9-10.2s-2.5-8-2.5-12.4v-384c0-4.4 0.875-8.575 2.5-12.4s4-7.3 6.9-10.2c2.9-2.9 6.375-5.275 10.2-6.9s8-2.5 12.4-2.5h320c4.4 0 8.575 0.875 12.4 2.5s7.3 4 10.2 6.9c2.9 2.9 5.275 6.375 6.9 10.2s2.5 8 2.5 12.4v384c0 4.4-0.875 8.575-2.5 12.4s-4 7.3-6.9 10.2c-2.9 2.9-6.375 5.275-10.2 6.9s-8 2.5-12.4 2.5h-96c0 35.36-28.64 64-64 64zM256 448c17.664 0 32-14.336 32-32s-14.336-32-32-32c-17.664 0-32 14.336-32 32s14.336 32 32 32zM96 384h32c0-4.4 0.444-8.743 1.3-12.9s2.075-8.075 3.7-11.9c1.625-3.825 3.694-7.493 6-10.9s4.9-6.6 7.8-9.5c2.9-2.9 6.094-5.494 9.5-7.8s6.975-4.275 10.8-5.9c3.825-1.625 7.844-2.944 12-3.8s8.5-1.3 12.9-1.3h128c4.4 0 8.743 0.444 12.9 1.3s8.075 2.075 11.9 3.7c3.825 1.625 7.494 3.694 10.9 6s6.6 4.9 9.5 7.8c2.9 2.9 5.494 6.094 7.8 9.5s4.375 7.075 6 10.9c1.625 3.825 2.844 7.744 3.7 11.9s1.3 8.5 1.3 12.9h32v-384h-320v384z" />
<glyph unicode="&#xe602;" glyph-name="task-check" d="M115.7 480c-27.643 0-51.7-22.857-51.7-50.5v-411c0-27.643 24.057-50.5 51.7-50.5h280.6c27.642 0 51.7 22.857 51.7 50.5v307.7l-153.8 153.8h-178.5zM256 441.5l153.5-153.5h-153.5v153.5zM348.2 235.5l35.8-35.7-167-167.8-89 89 35.8 35.8 53.2-52.5 131.2 131.2z" />
<glyph unicode="&#xe603;" glyph-name="pivot-col" d="M64 416v-384h192v384h-192zM288 416v-384h32v384h-32zM352 416v-384h32v384h-32zM416 416v-384h32v384h-32z" />
<glyph unicode="&#xe604;" glyph-name="user-add" d="M318.437 170.301c61.588 0 200.74-30.707 193.274-91.841v-46.46h-383.711v46.46c0 61.588 128.849 91.841 190.437 91.841zM128 288h64l-0.001-64h-64.001l0.001-64h-64l-0.001 64h-64l0.001 64h64v64h64zM320 224c-53.082 0-96 42.666-96 95.439s42.918 96.561 96 96.561c53.082 0 96-43.789 96-96.561s-42.918-95.439-96-95.439z" />
<glyph unicode="&#xe605;" glyph-name="location-arrow" d="M512 480l-214.667-512h-28l-74.666 194.667-194.667 74.666v28z" />
<glyph unicode="&#xe606;" glyph-name="database" d="M444.272 161.648c-23.047-37.247-101.109-64.471-188.273-64.471-87.108 0-165.239 27.224-188.259 64.471-4.888 7.892-3.741 3.659-3.741-0.246 0-3.933 0-54.668 0-54.668 0-52.947 86.432-106.734 192-106.734s192 53.787 192 106.734c0 0 0 50.736 0 54.668 0 3.905 1.106 8.137-3.728 0.246zM444.546 301.322c-22.637-32.931-101.027-57.071-188.546-57.071s-165.922 24.139-188.559 57.071c-4.697 6.799-3.441 3.113-3.441 0.025 0-3.086 0-64.334 0-64.334 0-48.142 86.432-87.135 192-87.135s192 38.994 192 87.135c0 0 0 61.249 0 64.334s1.216 6.773-3.454-0.025zM256 480c-105.567 0-192-32.67-192-72.374v-34.379c0-42.107 86.432-76.24 192-76.24s192 34.133 192 76.24v34.352c0 39.731-86.432 72.401-192 72.401z" />
<glyph unicode="&#xe607;" glyph-name="logout" d="M64 448h224v32h-224c-31.289 0-32-0.711-32-32v-448c0-31.289 0.711-32 32-32h224v32h-224zM480 224l-128 128v-96h-192v-64h192v-96z" />
<glyph unicode="&#xe608;" glyph-name="login" d="M448 448h-224v32h224c31.289 0 32-0.711 32-32v-448c0-31.289-0.711-32-32-32h-224v32h224zM352 224l-128 128v-96h-192v-64h192v-96z" />
<glyph unicode="&#xe609;" glyph-name="flow" d="M358.4 106.24c-25.267 0-47.002-15.309-56.423-37.12h-84.377c-36.147 0-39.526 30.515-39.68 39.68v99.021c11.034-5.094 24.141-8.141 39.68-8.141h84.377c9.421-21.837 31.155-37.12 56.423-37.12 33.92 0 61.44 27.52 61.44 61.44s-27.52 61.44-61.44 61.44c-25.267 0-47.002-15.309-56.423-37.12h-84.377c-36.147 0-39.526 30.515-39.68 39.68v58.778c21.837 9.421 37.094 31.155 37.094 56.422 0 33.92-27.494 61.44-61.415 61.44s-61.44-27.52-61.44-61.44c0-25.267 15.309-46.976 37.12-56.422v-237.978c0-35.507 23.526-88.32 88.32-88.32h84.378c9.421-21.837 31.155-37.12 56.423-37.12 33.92 0 61.44 27.495 61.44 61.44 0 33.92-27.52 61.44-61.44 61.44zM358.4 259.456c19.584 0 35.456-15.872 35.456-35.456s-15.872-35.456-35.456-35.456-35.456 15.872-35.456 35.456 15.872 35.456 35.456 35.456zM118.144 403.2c0 19.584 15.872 35.456 35.456 35.456s35.456-15.872 35.456-35.456-15.872-35.456-35.456-35.456-35.456 15.872-35.456 35.456zM358.4 9.344c-19.584 0-35.456 15.872-35.456 35.456s15.872 35.456 35.456 35.456 35.456-15.872 35.456-35.456-15.872-35.456-35.456-35.456z" />
<glyph unicode="&#xe60a;" glyph-name="pivot-row" d="M448 416h-384v-192h384v192zM448 192h-384v-32h384v32zM448 128h-384v-32h384v32zM448 64h-384v-32h384v32z" />
<glyph unicode="&#xe60b;" glyph-name="add" d="M224 448v-192h-192v-64h192v-192h64v192h192v64h-192v192z" />
<glyph unicode="&#xe60c;" glyph-name="rotate" d="M256 416c106 0 192-86 192-192s-86-192-192-192c-44 0-85 15-117 40l30 30c25-17 55-27 87-27 83 0 149 66 149 149s-66 149-149 149c-83 0-149-66-149-149h64l-86-85-85 85h64c0 106 86 192 192 192zM304 224c0-25.675-22.325-48-48-48s-48 22.325-48 48c0 25.674 22.326 48 48 48s48-22.326 48-48z" />
<glyph unicode="&#xe60d;" glyph-name="bottom-border" d="M32 32h416v-32h-416zM32 96h32v-32h-32zM32 160h32v-32h-32zM32 224h32v-32h-32zM32 288h32v-32h-32zM32 352h32v-32h-32zM32 416h32v-32h-32zM96 224h32v-32h-32zM96 416h32v-32h-32zM160 224h32v-32h-32zM160 416h32v-32h-32zM224 96h32v-32h-32zM224 160h32v-32h-32zM224 224h32v-32h-32zM224 288h32v-32h-32zM224 352h32v-32h-32zM224 416h32v-32h-32zM288 224h32v-32h-32zM288 416h32v-32h-32zM352 224h32v-32h-32zM352 416h32v-32h-32zM416 96h32v-32h-32zM416 160h32v-32h-32zM416 224h32v-32h-32zM416 288h32v-32h-32zM416 352h32v-32h-32zM416 416h32v-32h-32z" />
<glyph unicode="&#xe60e;" glyph-name="shift" d="M160 352h224v64l128-96-128-96v64h-224zM0 128l128 96v-64h224v-64h-224v-64z" />
<glyph unicode="&#xe60f;" glyph-name="top-border" d="M32 32h32v-32h-32zM32 96h32v-32h-32zM32 160h32v-32h-32zM32 224h32v-32h-32zM32 288h32v-32h-32zM32 352h32v-32h-32zM32 416h416v-32h-416zM96 32h32v-32h-32zM96 224h32v-32h-32zM160 32h32v-32h-32zM160 224h32v-32h-32zM224 32h32v-32h-32zM224 96h32v-32h-32zM224 160h32v-32h-32zM224 224h32v-32h-32zM224 288h32v-32h-32zM224 352h32v-32h-32zM288 32h32v-32h-32zM288 224h32v-32h-32zM352 32h32v-32h-32zM352 224h32v-32h-32zM416 32h32v-32h-32zM416 96h32v-32h-32zM416 160h32v-32h-32zM416 224h32v-32h-32zM416 288h32v-32h-32zM416 352h32v-32h-32z" />
<glyph unicode="&#xe610;" glyph-name="file-memo" d="M115.7 480c-27.643 0-51.7-22.857-51.7-50.5v-411c0-27.643 24.057-50.5 51.7-50.5h280.6c27.642 0 51.7 22.857 51.7 50.5v307.7l-153.8 153.8zM256 441.5l153.5-153.5h-153.5zM160 208h192v-48h-192zM160 112h192v-48h-192z" />
<glyph unicode="&#xe611;" glyph-name="face-hurry" d="M256-32c141.385 0 256 114.615 256 256s-114.615 256-256 256c-141.385 0-256-114.615-256-256s114.615-256 256-256zM256 432c114.875 0 208-93.125 208-208s-93.125-208-208-208c-114.875 0-208 93.125-208 208s93.125 208 208 208zM159.951 89.63l-41.164 24.698c27.981 46.535 78.958 77.672 137.213 77.672s109.231-31.137 137.213-77.672l-41.164-24.698c-19.587 32.574-55.271 54.37-96.049 54.37-40.779 0-76.462-21.796-96.049-54.37zM388.503 343.865c0-2.476-0.952-4.667-2.857-6.571l-34.505-34.504 34.505-34.505c1.904-1.904 2.857-4.095 2.857-6.571s-0.952-4.666-2.857-6.571l-14.286-14.286c-1.904-1.905-4.095-2.857-6.571-2.857s-4.666 0.952-6.571 2.857l-55.361 55.361c-1.904 1.905-2.857 4.095-2.857 6.571s0.952 4.667 2.857 6.571l55.361 55.361c1.904 1.904 4.095 2.857 6.571 2.857s4.666-0.952 6.571-2.857l14.286-14.286c1.904-1.904 2.857-4.095 2.857-6.571zM130 343.865c0-2.476 0.952-4.667 2.857-6.571l34.505-34.504-34.505-34.505c-1.905-1.904-2.857-4.095-2.857-6.571s0.952-4.666 2.857-6.571l14.286-14.286c1.905-1.905 4.095-2.857 6.571-2.857s4.667 0.952 6.571 2.857l55.361 55.362c1.905 1.905 2.857 4.095 2.857 6.571s-0.952 4.667-2.857 6.571l-55.361 55.361c-1.905 1.904-4.095 2.857-6.571 2.857s-4.667-0.952-6.571-2.857l-14.286-14.286c-1.905-1.905-2.857-4.095-2.857-6.571z" />
<glyph unicode="&#xe612;" glyph-name="portrait" d="M107.801 480c-24.028 0-43.8-19.873-43.8-43.9v-424.2c0-24.027 19.773-43.9 43.8-43.9h296.399c24.027 0 43.8 19.873 43.8 43.9v424.2c0 24.027-19.772 43.9-43.8 43.9zM107.801 448h296.399c6.853 0 11.8-5.047 11.8-11.9v-424.2c0-6.853-4.947-11.9-11.8-11.9h-296.399c-6.853 0-11.8 5.047-11.8 11.9v424.2c0 6.853 4.947 11.9 11.8 11.9z" />
<glyph unicode="&#xe613;" glyph-name="landscape" d="M512 372.199c0 24.027-19.873 43.8-43.9 43.8h-424.2c-24.027 0-43.9-19.773-43.9-43.8v-296.399c0-24.027 19.872-43.8 43.9-43.8h424.2c24.027 0 43.9 19.772 43.9 43.8zM480 372.199v-296.399c0-6.853-5.047-11.8-11.9-11.8h-424.2c-6.853 0-11.9 4.947-11.9 11.8v296.399c0 6.853 5.047 11.8 11.9 11.8h424.2c6.853 0 11.9-4.947 11.9-11.8z" />
<glyph unicode="&#xe614;" glyph-name="browser" d="M23.1 416c-12.768 0-23.1-10.332-23.1-23.1v-369.8c0-12.769 10.332-23.1 23.1-23.1h465.8c12.769 0 23.1 10.332 23.1 23.1v369.8c0 12.769-10.332 23.1-23.1 23.1zM51.2 357.299c10.624 0 19.2-8.357 19.2-18.7s-8.575-18.6-19.2-18.6c-10.624 0-19.2 8.284-19.2 18.6s8.575 18.7 19.2 18.7zM115.2 357.299c10.624 0 19.2-8.282 19.2-18.6 0-10.342-8.576-18.7-19.2-18.7s-19.2 8.283-19.2 18.6c0 10.342 8.602 18.7 19.2 18.7zM160 352h320.3v-32h-320.3zM31.7 288h448.6v-256h-448.6z" />
<glyph unicode="&#xe615;" glyph-name="left-border" d="M32 416h32v-416h-32zM96 32h32v-32h-32zM96 224h32v-32h-32zM96 416h32v-32h-32zM160 32h32v-32h-32zM160 224h32v-32h-32zM160 416h32v-32h-32zM224 32h32v-32h-32zM224 96h32v-32h-32zM224 160h32v-32h-32zM224 224h32v-32h-32zM224 288h32v-32h-32zM224 352h32v-32h-32zM224 416h32v-32h-32zM288 32h32v-32h-32zM288 224h32v-32h-32zM288 416h32v-32h-32zM352 32h32v-32h-32zM352 224h32v-32h-32zM352 416h32v-32h-32zM416 32h32v-32h-32zM416 96h32v-32h-32zM416 160h32v-32h-32zM416 224h32v-32h-32zM416 288h32v-32h-32zM416 352h32v-32h-32zM416 416h32v-32h-32z" />
<glyph unicode="&#xe616;" glyph-name="thumbnail" d="M32 448h192v-192h-192v192zM32 192h192v-192h-192v192zM288 448h192v-192h-192v192zM288 192h192v-192h-192v192z" />
<glyph unicode="&#xe617;" glyph-name="menulist" d="M32 384v-64h448v64zM32 256v-64h448v64zM32 128v-64h448v64z" />
<glyph unicode="&#xe618;" glyph-name="list" d="M32 256h96v-96h-96zM32 416h96v-96h-96zM32 96h96v-96h-96zM160 256h320v-96h-320v96zM160 416h320v-96h-320v96zM160 96h320v-96h-320v96z" />
<glyph unicode="&#xe619;" glyph-name="checkmark" d="M174.166 124.842l269.995 269.995 35.839-35.839-305.834-305.834-142.166 142.166 35.84 35.839z" />
<glyph unicode="&#xe61a;" glyph-name="close" d="M448 377.343l-153.342-153.343 153.342-153.342-38.658-38.658-153.343 153.342-153.343-153.342-38.657 38.658 153.343 153.343-153.343 153.343 38.657 38.657 153.343-153.343 153.343 153.343z" />
<glyph unicode="&#xe61b;" glyph-name="right-border" d="M32 32h32v-32h-32zM32 96h32v-32h-32zM32 160h32v-32h-32zM32 224h32v-32h-32zM32 288h32v-32h-32zM32 352h32v-32h-32zM32 416h32v-32h-32zM96 32h32v-32h-32zM96 224h32v-32h-32zM96 416h32v-32h-32zM160 32h32v-32h-32zM160 224h32v-32h-32zM160 416h32v-32h-32zM224 32h32v-32h-32zM224 96h32v-32h-32zM224 160h32v-32h-32zM224 224h32v-32h-32zM224 288h32v-32h-32zM224 352h32v-32h-32zM224 416h32v-32h-32zM288 32h32v-32h-32zM288 224h32v-32h-32zM288 416h32v-32h-32zM352 32h32v-32h-32zM352 224h32v-32h-32zM352 416h32v-32h-32zM416 416h32v-416h-32z" />
<glyph unicode="&#xe61c;" glyph-name="no-border" d="M32 32h32v-32h-32zM32 96h32v-32h-32zM32 160h32v-32h-32zM32 224h32v-32h-32zM32 288h32v-32h-32zM32 352h32v-32h-32zM32 416h32v-32h-32zM96 32h32v-32h-32zM96 224h32v-32h-32zM96 416h32v-32h-32zM160 32h32v-32h-32zM160 224h32v-32h-32zM160 416h32v-32h-32zM224 32h32v-32h-32zM224 96h32v-32h-32zM224 160h32v-32h-32zM224 224h32v-32h-32zM224 288h32v-32h-32zM224 352h32v-32h-32zM224 416h32v-32h-32zM288 32h32v-32h-32zM288 224h32v-32h-32zM288 416h32v-32h-32zM352 32h32v-32h-32zM352 224h32v-32h-32zM352 416h32v-32h-32zM416 32h32v-32h-32zM416 96h32v-32h-32zM416 160h32v-32h-32zM416 224h32v-32h-32zM416 288h32v-32h-32zM416 352h32v-32h-32zM416 416h32v-32h-32z" />
<glyph unicode="&#xe61d;" glyph-name="function" d="M103.523 323.62l-20.297-19.901 3.248-5.237h99.454c-5.108-24.2-10.114-49.906-15.019-77.117-4.905-27.212-10.724-58.416-17.456-93.615-7.78-39.963-13.531-66.702-17.252-80.216s-6.225-21.225-7.51-23.132c-3.653-8.089-10.148-12.161-19.486-12.221-6.977 0.131-15.248 1.877-24.813 5.237s-17.532 7.55-23.9 12.57c-3.111 2.502-7.036 2.385-11.773-0.349-5.353-3.236-10.275-7.412-14.766-12.526s-6.875-10.598-7.154-16.453c0.313-7.354 4.66-13.507 13.041-18.462s17.701-7.529 27.959-7.725c9.159 0.059 19.156 2.298 29.989 6.721s22.352 10.678 34.556 18.767c21.219 13.806 39.165 31.409 53.838 52.808s27.849 52.793 39.529 94.182c8.067 29.030 14.563 55.725 19.486 80.085s9.793 48.175 14.613 71.444l98.237 4.19 12.99 20.949h-105.137c9.175 48.713 17.007 79.597 23.493 92.654s12.592 18.715 18.318 16.977c5.666-0.291 11.89-2.939 18.673-7.943s14.224-11.668 22.327-19.988c2.571-2.219 5.040-3.368 7.409-3.448 2.368-0.080 5.040 0.604 8.017 2.051 4.584 1.92 9.218 5.586 13.904 10.998s7.493 11.522 8.423 18.33c0.211 6.772-3.257 12.867-10.402 18.287-7.147 5.419-18.022 8.285-32.627 8.597-11.197 0.145-25.439-2.939-42.725-9.252s-34.978-16.73-53.077-31.248c-14.53-11.878-26.065-25.568-34.606-41.068s-15.815-33.817-21.82-54.947zM271.449 118.455c7.897 9.209 14.277 15.609 19.14 19.199s8.375 5.307 10.539 5.151c2.269 0.507 4.897-1.054 7.884-4.683s6.878-12.37 11.678-26.223l12.142-38.398c-12.591-17.462-23.749-31.003-33.474-40.623s-17.341-14.497-22.849-14.634c-4.553-0.051-8.601 1.613-12.142 4.995-1.497 1.288-3.057 2.38-4.679 3.277s-3.436 1.365-5.439 1.405c-5.713-0.111-11.066-2.543-16.063-7.297s-7.736-11.167-8.221-19.238c-0.119-8.071 2.396-14.483 7.547-19.238s11.629-7.187 19.435-7.297c12.556-0.253 24.88 5.795 36.973 18.145s27.536 32.525 46.332 60.524l11.467-33.715c5.255-16.077 10.933-27.628 17.031-34.652s13.462-10.458 22.091-10.302c9.647-0.247 21.212 4.072 34.697 12.955s27.663 23.817 42.538 44.798l-10.455 11.55c-9.219-9.873-16.667-16.897-22.344-21.072-5.678-4.175-9.921-6.205-12.732-6.087-3.226 0.058-6.387 2.439-9.486 7.14-3.099 4.702-6.007 11.375-8.726 20.019l-20.911 59.314c5.74 6.594 11.038 12.604 15.894 18.029s9.226 10.029 13.111 13.813c4.666 4.006 8.656 6.842 11.973 8.507 3.316 1.665 6.295 2.471 8.938 2.419 2.683-0.053 4.988-0.573 6.914-1.562s3.555-2.133 4.89-3.434c1.334-1.438 2.796-2.622 4.384-3.551s3.387-1.411 5.396-1.443c5.712 0.116 11.151 2.459 16.315 7.024s8.158 10.653 8.979 18.262c0.38 6.777-1.392 12.578-5.312 17.404s-10.245 7.349-18.971 7.57c-10.828 0.345-22.14-4.404-33.938-14.243-11.797-9.841-26.904-26.841-45.32-51.002l-8.432 21.54c-5.165 14.25-10.266 25.085-15.303 32.506s-11.404 11.154-19.098 11.2c-9.619-0.098-20.82-4.976-33.6-14.634s-26.089-23.511-39.923-41.558z" />
<glyph unicode="&#xe61e;" glyph-name="font" d="M228.708 448l-150.857-384h61.715l30.72 82.286h171.429l30.721-82.286h61.715l-150.583 384h-54.857zM190.856 201.14l65.281 173.623 65.281-173.623h-130.56z" />
<glyph unicode="&#xe61f;" glyph-name="bold" d="M286.822 132.066c23.118 0 41.096 17.981 41.096 41.096s-17.981 41.096-41.096 41.096h-96.322v-82.194h96.322zM190.501 378.648v-82.194h82.194c23.118 0 41.096 17.981 41.096 41.096s-17.981 41.096-41.096 41.096h-82.194zM344.616 261.779c35.959-16.697 59.077-52.656 59.077-93.751 0-57.793-43.666-104.028-101.459-104.028h-193.927v384h172.093c61.645 0 109.164-48.803 109.164-110.448 0-28.255-17.981-57.793-44.95-75.773z" />
<glyph unicode="&#xe620;" glyph-name="fit-page" d="M457.803 364.362c-11.106 15.146-26.587 32.85-43.589 49.852s-34.706 32.482-49.852 43.589c-25.787 18.91-38.296 21.097-45.462 21.097h-248c-22.056 0-40-17.944-40-40v-432c0-22.056 17.944-40 40-40h368c22.056 0 40 17.944 40 40v312c0 7.166-2.186 19.675-21.097 45.462zM391.587 391.587c15.35-15.35 27.4-29.199 36.29-40.687h-76.977v76.973c11.492-8.89 25.339-20.939 40.687-36.286zM446.9 6.9c0-4.336-3.664-8-8-8h-368c-4.336 0-8 3.664-8 8v432c0 4.336 3.664 8 8 8 0 0 247.978 0.001 248 0v-112c0-8.836 7.163-16 16-16h112v-312zM160 241.333v-130.667c0-2.532-1.076-4.702-3.142-6.584-2.15-1.809-4.631-2.75-7.525-2.75s-5.375 0.941-7.525 2.75l-74.666 65.334c-2.067 1.88-3.141 4.051-3.141 6.584s1.075 4.702 3.141 6.584l74.666 65.334c2.15 1.809 4.631 2.749 7.525 2.749s5.375-0.941 7.525-2.749c2.067-1.881 3.142-4.051 3.142-6.584zM448 176.001c0-2.532-1.075-4.702-3.142-6.584l-74.666-65.334c-2.149-1.809-4.63-2.75-7.525-2.75s-5.375 0.941-7.525 2.75c-2.067 1.88-3.142 4.051-3.142 6.584v130.667c0 2.533 1.075 4.703 3.142 6.584 2.149 1.809 4.63 2.749 7.525 2.749s5.375-0.941 7.525-2.749l74.666-65.334c2.067-1.88 3.142-4.051 3.142-6.584zM321.334 256h-130.667c-2.532 0-4.702 1.076-6.584 3.142-1.809 2.15-2.75 4.631-2.75 7.525s0.941 5.375 2.75 7.525l65.334 74.666c1.881 2.067 4.051 3.142 6.584 3.142s4.702-1.075 6.584-3.142l65.334-74.666c1.809-2.15 2.748-4.63 2.748-7.525s-0.941-5.375-2.748-7.525c-1.88-2.067-4.051-3.142-6.584-3.142zM256.002 0c-2.532 0-4.702 1.075-6.584 3.142l-65.334 74.666c-1.809 2.149-2.75 4.63-2.75 7.525s0.941 5.375 2.75 7.525c1.881 2.067 4.051 3.142 6.584 3.142h130.667c2.533 0 4.704-1.075 6.584-3.142 1.809-2.149 2.748-4.63 2.748-7.525s-0.941-5.375-2.748-7.525l-65.334-74.666c-1.88-2.067-4.051-3.142-6.584-3.142z" />
<glyph unicode="&#xe621;" glyph-name="actual-size" d="M457.803 364.362c-11.106 15.146-26.587 32.85-43.589 49.852s-34.706 32.482-49.852 43.589c-25.787 18.91-38.296 21.097-45.462 21.097h-248c-22.056 0-40-17.944-40-40v-432c0-22.056 17.944-40 40-40h368c22.056 0 40 17.944 40 40v312c0 7.166-2.186 19.675-21.097 45.462zM391.587 391.587c15.35-15.35 27.4-29.199 36.29-40.687h-76.977v76.973c11.492-8.89 25.339-20.939 40.687-36.286zM446.9 6.9c0-4.336-3.664-8-8-8h-368c-4.336 0-8 3.664-8 8v432c0 4.336 3.664 8 8 8 0 0 247.978 0.001 248 0v-112c0-8.836 7.163-16 16-16h112v-312zM144 64c-8.837 0-16 7.164-16 16v144h-16c-8.837 0-16 7.164-16 16s7.163 16 16 16h32c8.837 0 16-7.164 16-16v-160c0-8.836-7.163-16-16-16zM400 70.4c-8.837 0-16 7.164-16 16v137.6h-16c-8.837 0-16 7.164-16 16s7.163 16 16 16h32c8.837 0 16-7.164 16-16v-153.6c0-8.836-7.163-16-16-16zM286.803 216c0 0 0 0 0 0 0-12.594-10.209-22.803-22.803-22.803s-22.803 10.209-22.803 22.803c0 0 0 0 0 0s0 0 0 0c0 12.594 10.209 22.803 22.803 22.803s22.803-10.209 22.803-22.803c0 0 0 0 0 0zM286.803 120c0 0 0 0 0 0 0-12.594-10.209-22.803-22.803-22.803s-22.803 10.209-22.803 22.803c0 0 0 0 0 0s0 0 0 0c0 12.594 10.209 22.803 22.803 22.803s22.803-10.209 22.803-22.803c0 0 0 0 0 0z" />
<glyph unicode="&#xe622;" glyph-name="italic" d="M192 447.999h224v-63.999h-80l-96-256h80v-64h-224v64h80l96 256h-80v64z" />
<glyph unicode="&#xe623;" glyph-name="fit-width" d="M457.803 364.362c-11.106 15.146-26.587 32.85-43.589 49.852s-34.706 32.482-49.852 43.589c-25.787 18.91-38.296 21.097-45.462 21.097h-248c-22.056 0-40-17.944-40-40v-432c0-22.056 17.944-40 40-40h368c22.056 0 40 17.944 40 40v312c0 7.166-2.186 19.675-21.097 45.462zM391.587 391.587c15.35-15.35 27.4-29.199 36.29-40.687h-76.977v76.973c11.492-8.89 25.339-20.939 40.687-36.286zM446.9 6.9c0-4.336-3.664-8-8-8h-368c-4.336 0-8 3.664-8 8v432c0 4.336 3.664 8 8 8 0 0 247.978 0.001 248 0v-112c0-8.836 7.163-16 16-16h112v-312zM160 236v-130.667c0-2.532-1.076-4.702-3.142-6.584-2.15-1.809-4.631-2.75-7.525-2.75s-5.375 0.941-7.525 2.75l-74.666 65.334c-2.067 1.88-3.141 4.051-3.141 6.584s1.075 4.702 3.141 6.584l74.666 65.334c2.15 1.809 4.631 2.749 7.525 2.749s5.375-0.941 7.525-2.749c2.067-1.881 3.142-4.051 3.142-6.584zM448 170.668c0-2.532-1.075-4.702-3.142-6.584l-74.666-65.334c-2.149-1.809-4.63-2.75-7.525-2.75s-5.375 0.941-7.525 2.75c-2.067 1.88-3.142 4.051-3.142 6.584v130.667c0 2.533 1.075 4.703 3.142 6.584 2.149 1.809 4.63 2.749 7.525 2.749s5.375-0.941 7.525-2.749l74.666-65.334c2.067-1.88 3.142-4.051 3.142-6.584z" />
<glyph unicode="&#xe624;" glyph-name="check-partial" d="M80.2 448c-26.422 0-48.2-21.778-48.2-48.2v-351.6c0-26.423 21.778-48.2 48.2-48.2h351.6c26.423 0 48.2 21.777 48.2 48.2v351.6c0 26.423-21.777 48.2-48.2 48.2h-351.6zM80.2 416h351.6c9.248 0 16.2-6.952 16.2-16.2v-351.6c0-9.248-6.952-16.2-16.2-16.2h-351.6c-9.248 0-16.2 6.952-16.2 16.2v351.6c0 9.248 6.952 16.2 16.2 16.2zM155.5 352c-15.099 0-27.5-12.401-27.5-27.5v-201c0-15.099 12.401-27.5 27.5-27.5h201c15.099 0 27.5 12.401 27.5 27.5v201c0 15.099-12.401 27.5-27.5 27.5h-201z" />
<glyph unicode="&#xe625;" glyph-name="share" d="M432 128c-22.58 0-42.96-9.369-57.506-24.415l-215.502 107.751c0.657 4.126 1.008 8.353 1.008 12.664s-0.351 8.538-1.008 12.663l215.502 107.751c14.546-15.045 34.926-24.414 57.506-24.414 44.183 0 80 35.817 80 80s-35.817 80-80 80-80-35.817-80-80c0-4.311 0.352-8.538 1.008-12.663l-215.502-107.752c-14.546 15.045-34.926 24.415-57.506 24.415-44.183 0-80-35.818-80-80 0-44.184 35.817-80 80-80 22.58 0 42.96 9.369 57.506 24.414l215.502-107.751c-0.656-4.125-1.008-8.352-1.008-12.663 0-44.184 35.817-80 80-80s80 35.816 80 80c0 44.182-35.817 80-80 80z" />
</font>
</defs>
</svg>
